<mxfile host="app.diagrams.net" modified="2023-01-12T05:41:32.478Z" agent="5.0 (Windows NT 10.0; Win64; x64) AppleWebKit/537.36 (KHTML, like Gecko) Chrome/108.0.0.0 Safari/537.36 Edg/108.0.1462.46" etag="7tRs65aE5h0ECFse1I2X" version="20.7.4" type="github" pages="4">
  <diagram id="lmJK-2yLrPPL_k1sbxFB" name="QTRIP">
    <mxGraphModel dx="1595" dy="868" grid="1" gridSize="10" guides="1" tooltips="1" connect="1" arrows="1" fold="1" page="1" pageScale="1" pageWidth="1654" pageHeight="1169" math="0" shadow="0">
      <root>
        <mxCell id="0" />
        <mxCell id="1" parent="0" />
        <mxCell id="1NMxPis9Ar9ZYOywmdkB-1" value="QTRIP TIMEFRAMES FOR PUBLICATION" style="swimlane;childLayout=stackLayout;resizeParent=1;resizeParentMax=0;horizontal=1;startSize=20;horizontalStack=0;fontSize=11;" parent="1" vertex="1">
          <mxGeometry x="10" y="80" width="1460" height="970" as="geometry" />
        </mxCell>
        <mxCell id="1NMxPis9Ar9ZYOywmdkB-84" value="" style="endArrow=none;dashed=1;html=1;rounded=0;strokeWidth=1;fontSize=10;endSize=6;entryX=0;entryY=1;entryDx=0;entryDy=0;" parent="1NMxPis9Ar9ZYOywmdkB-1" target="1NMxPis9Ar9ZYOywmdkB-39" edge="1">
          <mxGeometry width="50" height="50" relative="1" as="geometry">
            <mxPoint x="740" y="720" as="sourcePoint" />
            <mxPoint x="706" y="350" as="targetPoint" />
          </mxGeometry>
        </mxCell>
        <mxCell id="1NMxPis9Ar9ZYOywmdkB-85" value="" style="endArrow=none;dashed=1;html=1;rounded=0;strokeWidth=1;fontSize=10;endSize=6;entryX=0.75;entryY=1;entryDx=0;entryDy=0;" parent="1NMxPis9Ar9ZYOywmdkB-1" target="1NMxPis9Ar9ZYOywmdkB-41" edge="1">
          <mxGeometry width="50" height="50" relative="1" as="geometry">
            <mxPoint x="1400" y="720" as="sourcePoint" />
            <mxPoint x="1270" y="50" as="targetPoint" />
          </mxGeometry>
        </mxCell>
        <mxCell id="1NMxPis9Ar9ZYOywmdkB-2" value="            Program management and delivery areas  &#xa;(PDO regions, Translink, PDP, PMD, E&amp;T, TSP,SIAM)" style="swimlane;startSize=40;horizontal=0;fillColor=#ffe6cc;strokeColor=#d79b00;" parent="1NMxPis9Ar9ZYOywmdkB-1" vertex="1">
          <mxGeometry y="20" width="1460" height="320" as="geometry" />
        </mxCell>
        <mxCell id="1NMxPis9Ar9ZYOywmdkB-7" value="&lt;span style=&quot;font-size: 10px;&quot;&gt;Final QTRIP budgets and&lt;br&gt;expenditure finalised through 3PCM&amp;nbsp;&lt;/span&gt;" style="shape=step;perimeter=stepPerimeter;whiteSpace=wrap;html=1;fixedSize=1;fillColor=#ffe6cc;strokeColor=#d79b00;" parent="1NMxPis9Ar9ZYOywmdkB-2" vertex="1">
          <mxGeometry x="1260" y="250" width="196" height="50" as="geometry" />
        </mxCell>
        <mxCell id="1NMxPis9Ar9ZYOywmdkB-36" value="JANUARY" style="rounded=0;whiteSpace=wrap;html=1;fontSize=10;" parent="1NMxPis9Ar9ZYOywmdkB-2" vertex="1">
          <mxGeometry x="40" width="220" height="30" as="geometry" />
        </mxCell>
        <mxCell id="1NMxPis9Ar9ZYOywmdkB-37" value="FEBRUARY" style="rounded=0;whiteSpace=wrap;html=1;fontSize=10;" parent="1NMxPis9Ar9ZYOywmdkB-2" vertex="1">
          <mxGeometry x="260" width="240" height="30" as="geometry" />
        </mxCell>
        <mxCell id="1NMxPis9Ar9ZYOywmdkB-38" value="MARCH" style="rounded=0;whiteSpace=wrap;html=1;fontSize=10;" parent="1NMxPis9Ar9ZYOywmdkB-2" vertex="1">
          <mxGeometry x="500" width="240" height="30" as="geometry" />
        </mxCell>
        <mxCell id="1NMxPis9Ar9ZYOywmdkB-39" value="APRIL" style="rounded=0;whiteSpace=wrap;html=1;fontSize=10;" parent="1NMxPis9Ar9ZYOywmdkB-2" vertex="1">
          <mxGeometry x="740" width="240" height="30" as="geometry" />
        </mxCell>
        <mxCell id="1NMxPis9Ar9ZYOywmdkB-40" value="MAY" style="rounded=0;whiteSpace=wrap;html=1;fontSize=10;" parent="1NMxPis9Ar9ZYOywmdkB-2" vertex="1">
          <mxGeometry x="980" width="240" height="30" as="geometry" />
        </mxCell>
        <mxCell id="1NMxPis9Ar9ZYOywmdkB-41" value="JUNE" style="rounded=0;whiteSpace=wrap;html=1;fontSize=10;" parent="1NMxPis9Ar9ZYOywmdkB-2" vertex="1">
          <mxGeometry x="1220" width="240" height="30" as="geometry" />
        </mxCell>
        <mxCell id="1NMxPis9Ar9ZYOywmdkB-46" value="10. QTRIP endorsed by &lt;br&gt;Regional Directors, non-PDO Delivery Program Managers and Investment Program Senior Responsible Officers&amp;nbsp;&lt;br&gt;by 1 June.&amp;nbsp;&amp;nbsp;" style="rhombus;whiteSpace=wrap;html=1;fontSize=10;fillColor=#ffe6cc;strokeColor=#d79b00;" parent="1NMxPis9Ar9ZYOywmdkB-2" vertex="1">
          <mxGeometry x="1090" y="140" width="170" height="159.38" as="geometry" />
        </mxCell>
        <mxCell id="1NMxPis9Ar9ZYOywmdkB-76" value="&lt;span style=&quot;font-size: 10px;&quot;&gt;Delivery areas&amp;nbsp;and Business Program Managers&lt;br&gt;review draft QTRIP for accuracy and currency.&lt;br&gt;Make neccessary changes in&lt;br&gt;3PCM and feedback to PDP&lt;br&gt;&lt;/span&gt;" style="shape=step;perimeter=stepPerimeter;whiteSpace=wrap;html=1;fixedSize=1;fillColor=#ffe6cc;strokeColor=#d79b00;align=center;" parent="1NMxPis9Ar9ZYOywmdkB-2" vertex="1">
          <mxGeometry x="490" y="200" width="248" height="100" as="geometry" />
        </mxCell>
        <mxCell id="1NMxPis9Ar9ZYOywmdkB-80" value="&lt;span style=&quot;font-size: 10px;&quot;&gt;Delivery areas review&lt;br&gt;QTRIP publication&lt;br&gt;inclusive of CBRC&lt;br&gt;outcomes (24 May)&lt;/span&gt;" style="shape=step;perimeter=stepPerimeter;whiteSpace=wrap;html=1;fixedSize=1;fillColor=#ffe6cc;strokeColor=#d79b00;" parent="1NMxPis9Ar9ZYOywmdkB-2" vertex="1">
          <mxGeometry x="920" y="200" width="150" height="100" as="geometry" />
        </mxCell>
        <mxCell id="1NMxPis9Ar9ZYOywmdkB-98" value="Controlled change environment: limited program changes in consulation with PIP" style="text;html=1;strokeColor=none;fillColor=none;align=left;verticalAlign=middle;whiteSpace=wrap;rounded=0;fontSize=12;fontStyle=1" parent="1NMxPis9Ar9ZYOywmdkB-2" vertex="1">
          <mxGeometry x="746" y="40" width="214" height="40" as="geometry" />
        </mxCell>
        <mxCell id="1NMxPis9Ar9ZYOywmdkB-100" value="Controlled change ends same day or day after QTRIP/State Budget release" style="text;html=1;strokeColor=none;fillColor=none;align=left;verticalAlign=middle;whiteSpace=wrap;rounded=0;fontSize=12;fontStyle=1" parent="1NMxPis9Ar9ZYOywmdkB-2" vertex="1">
          <mxGeometry x="1220" y="40" width="174" height="40" as="geometry" />
        </mxCell>
        <mxCell id="oTxpOXQzTmKI59_1Gvsa-10" value="&lt;span style=&quot;font-size: 10px; text-align: left; background-color: initial;&quot;&gt;Development of new QTRIP investments and revisions to existing projects and budgets by management and delivery areas&lt;/span&gt;&lt;span style=&quot;font-size: 10px;&quot;&gt;&lt;br&gt;&lt;/span&gt;&lt;div style=&quot;text-align: left; font-size: 10px;&quot;&gt;&lt;ul style=&quot;&quot;&gt;&lt;li&gt;&lt;span style=&quot;font-size: 10px;&quot;&gt;Investments identified in a Management or Delivery Program (in 3PCM)- anything not covered by PDO should be endorsed by the Management/Delivery Program accountable officer and/or the Investment Program SRO&lt;br&gt;&lt;/span&gt;&lt;/li&gt;&lt;li&gt;&lt;span style=&quot;font-size: 10px;&quot;&gt;PDO region investment programs are approved by General Manager (PDO)&lt;/span&gt;&lt;/li&gt;&lt;li&gt;&lt;span style=&quot;font-size: 10px;&quot;&gt;Endorsement for programs to be included in QTRIP is required from Regional Directors (PDO regions), non-PDO Management/Delivery Program owners and Investment Program SROs.&amp;nbsp;&lt;/span&gt;&lt;/li&gt;&lt;li&gt;&lt;span style=&quot;font-size: 10px;&quot;&gt;Once approved, Regions and PMD finalise details through 3PCM (early April)&lt;/span&gt;&lt;/li&gt;&lt;/ul&gt;&lt;/div&gt;" style="shape=step;perimeter=stepPerimeter;whiteSpace=wrap;html=1;fixedSize=1;fillColor=#ffe6cc;strokeColor=#d79b00;strokeWidth=4;" parent="1NMxPis9Ar9ZYOywmdkB-2" vertex="1">
          <mxGeometry x="60" y="50" width="680" height="130" as="geometry" />
        </mxCell>
        <mxCell id="VlpEdn5kcAN5RxGuJyD6-1" value="&lt;span style=&quot;font-size: 10px;&quot;&gt;Delivery areas&amp;nbsp;and Business&lt;br&gt;Program Managers review draft&lt;br&gt;QTRIP and provide feedback.&lt;br&gt;Changes can only be made&lt;br&gt;at PIP discretion.&lt;br&gt;&lt;br&gt;&lt;/span&gt;" style="shape=step;perimeter=stepPerimeter;whiteSpace=wrap;html=1;fixedSize=1;fillColor=#ffe6cc;strokeColor=#d79b00;align=center;" parent="1NMxPis9Ar9ZYOywmdkB-2" vertex="1">
          <mxGeometry x="740" y="200" width="188" height="100" as="geometry" />
        </mxCell>
        <mxCell id="1NMxPis9Ar9ZYOywmdkB-53" value="" style="endArrow=classic;startArrow=classic;html=1;rounded=0;strokeWidth=0.2;fontSize=10;endSize=6;entryX=0.5;entryY=1;entryDx=0;entryDy=0;" parent="1NMxPis9Ar9ZYOywmdkB-1" target="1NMxPis9Ar9ZYOywmdkB-46" edge="1">
          <mxGeometry width="50" height="50" relative="1" as="geometry">
            <mxPoint x="1175" y="360" as="sourcePoint" />
            <mxPoint x="1163" y="350" as="targetPoint" />
          </mxGeometry>
        </mxCell>
        <mxCell id="1NMxPis9Ar9ZYOywmdkB-3" value="Portfolio Planning and Investment (PIP)" style="swimlane;startSize=40;horizontal=0;fillColor=#d5e8d4;strokeColor=#82b366;" parent="1NMxPis9Ar9ZYOywmdkB-1" vertex="1">
          <mxGeometry y="340" width="1460" height="380" as="geometry" />
        </mxCell>
        <mxCell id="1NMxPis9Ar9ZYOywmdkB-8" value="&lt;span style=&quot;font-size: 10px;&quot;&gt;QTRIP baseline aligned by PFA with allocation files provided by Finance&amp;nbsp;&lt;/span&gt;" style="shape=step;perimeter=stepPerimeter;whiteSpace=wrap;html=1;fixedSize=1;fillColor=#d5e8d4;strokeColor=#82b366;" parent="1NMxPis9Ar9ZYOywmdkB-3" vertex="1">
          <mxGeometry x="1270" y="310" width="190" height="50" as="geometry" />
        </mxCell>
        <mxCell id="1NMxPis9Ar9ZYOywmdkB-16" value="QTRIP released on TMR website in line with state budget&lt;br&gt;(2nd week of June)" style="shape=document;whiteSpace=wrap;html=1;boundedLbl=1;fontSize=10;fillColor=#d5e8d4;strokeColor=#82b366;fontStyle=1;strokeWidth=4;" parent="1NMxPis9Ar9ZYOywmdkB-3" vertex="1">
          <mxGeometry x="1280" y="23" width="120" height="90" as="geometry" />
        </mxCell>
        <mxCell id="1NMxPis9Ar9ZYOywmdkB-19" value="&lt;span style=&quot;font-size: 10px;&quot;&gt;PDP coordinates QTRIP&amp;nbsp;&lt;br&gt;&lt;/span&gt;&lt;span style=&quot;font-size: 10px;&quot;&gt;draft V0.4 (publication).&lt;br&gt;&lt;/span&gt;&lt;span style=&quot;font-size: 10px;&quot;&gt;May include CBRC and Federal&amp;nbsp;&lt;/span&gt;&lt;span style=&quot;font-size: 10px;&quot;&gt;Budget outcomes.&lt;/span&gt;&lt;span style=&quot;font-size: 10px;&quot;&gt;&lt;br&gt;&lt;/span&gt;" style="shape=step;perimeter=stepPerimeter;whiteSpace=wrap;html=1;fixedSize=1;fillColor=#d5e8d4;strokeColor=#82b366;" parent="1NMxPis9Ar9ZYOywmdkB-3" vertex="1">
          <mxGeometry x="920" y="23" width="150" height="97" as="geometry" />
        </mxCell>
        <mxCell id="oTxpOXQzTmKI59_1Gvsa-21" style="edgeStyle=orthogonalEdgeStyle;rounded=0;orthogonalLoop=1;jettySize=auto;html=1;entryX=0;entryY=0.5;entryDx=0;entryDy=0;strokeWidth=1;fontFamily=Helvetica;fontSize=10;fontColor=#000000;" parent="1NMxPis9Ar9ZYOywmdkB-3" source="1NMxPis9Ar9ZYOywmdkB-50" target="1NMxPis9Ar9ZYOywmdkB-81" edge="1">
          <mxGeometry relative="1" as="geometry" />
        </mxCell>
        <mxCell id="UMWtJVkDgTL3G8nmxIHJ-2" style="edgeStyle=orthogonalEdgeStyle;rounded=0;orthogonalLoop=1;jettySize=auto;html=1;entryX=0;entryY=0.5;entryDx=0;entryDy=0;" parent="1NMxPis9Ar9ZYOywmdkB-3" source="1NMxPis9Ar9ZYOywmdkB-50" target="UMWtJVkDgTL3G8nmxIHJ-1" edge="1">
          <mxGeometry relative="1" as="geometry" />
        </mxCell>
        <mxCell id="1NMxPis9Ar9ZYOywmdkB-50" value="&lt;span style=&quot;font-size: 10px;&quot;&gt;QTRIP V0.5&lt;br&gt;(Draft publication) emailed&lt;br&gt;to responsibly officers&amp;nbsp;by PFA&lt;br&gt;for endorsement (29 May)&lt;br&gt;&lt;/span&gt;" style="shape=step;perimeter=stepPerimeter;whiteSpace=wrap;html=1;fixedSize=1;fillColor=#d5e8d4;strokeColor=#82b366;" parent="1NMxPis9Ar9ZYOywmdkB-3" vertex="1">
          <mxGeometry x="1060" y="23" width="160" height="97" as="geometry" />
        </mxCell>
        <mxCell id="1NMxPis9Ar9ZYOywmdkB-52" value="ICC considers and&lt;br&gt;endorses draft&amp;nbsp;&lt;br&gt;QTRIP publication&lt;br&gt;(31 May)" style="rhombus;whiteSpace=wrap;html=1;fontSize=10;fillColor=#d5e8d4;strokeColor=#82b366;" parent="1NMxPis9Ar9ZYOywmdkB-3" vertex="1">
          <mxGeometry x="1010" y="130" width="130" height="128.92" as="geometry" />
        </mxCell>
        <mxCell id="1NMxPis9Ar9ZYOywmdkB-69" value="ICC considers&amp;nbsp;&lt;br&gt;first draft QTRIP -&lt;br&gt;ie. program&lt;br&gt;status (26 April)" style="rhombus;whiteSpace=wrap;html=1;fontSize=10;fillColor=#d5e8d4;strokeColor=#82b366;" parent="1NMxPis9Ar9ZYOywmdkB-3" vertex="1">
          <mxGeometry x="856" y="130" width="130" height="128.92" as="geometry" />
        </mxCell>
        <mxCell id="1NMxPis9Ar9ZYOywmdkB-75" value="&lt;font style=&quot;font-size: 10px;&quot;&gt;PPD coordinate draft QTRIP review (V0.1 - V0.2 tables and text) by&lt;br&gt;Delivery areas by late March.&amp;nbsp;&lt;br&gt;&lt;/font&gt;&lt;div style=&quot;text-align: left; font-size: 10px;&quot;&gt;&lt;ul style=&quot;&quot;&gt;&lt;li style=&quot;&quot;&gt;&lt;font style=&quot;font-size: 10px;&quot;&gt;QTRIP Excel spreadsheet emailed to delivery areas for review.&lt;/font&gt;&lt;/li&gt;&lt;li style=&quot;&quot;&gt;&lt;font style=&quot;font-size: 10px;&quot;&gt;Program changes can still be made&amp;nbsp;&lt;/font&gt;&lt;/li&gt;&lt;li style=&quot;&quot;&gt;&lt;font style=&quot;font-size: 10px;&quot;&gt;&lt;font style=&quot;font-size: 10px;&quot;&gt;PDP actions proposed changes from Delivery areas and PIP Business Program Managers.&amp;nbsp;&lt;/font&gt;&lt;/font&gt;&lt;/li&gt;&lt;/ul&gt;&lt;/div&gt;" style="shape=step;perimeter=stepPerimeter;whiteSpace=wrap;html=1;fixedSize=1;fillColor=#d5e8d4;strokeColor=#82b366;" parent="1NMxPis9Ar9ZYOywmdkB-3" vertex="1">
          <mxGeometry x="380" y="23" width="360" height="97" as="geometry" />
        </mxCell>
        <mxCell id="1NMxPis9Ar9ZYOywmdkB-81" value="Cabinet considers QTRIP (5 June)" style="rhombus;whiteSpace=wrap;html=1;fontSize=10;fillColor=#d5e8d4;strokeColor=#82b366;" parent="1NMxPis9Ar9ZYOywmdkB-3" vertex="1">
          <mxGeometry x="1160" y="130" width="110" height="80" as="geometry" />
        </mxCell>
        <mxCell id="UMWtJVkDgTL3G8nmxIHJ-10" style="edgeStyle=orthogonalEdgeStyle;rounded=0;orthogonalLoop=1;jettySize=auto;html=1;entryX=0.449;entryY=0.972;entryDx=0;entryDy=0;entryPerimeter=0;" parent="1NMxPis9Ar9ZYOywmdkB-3" source="UMWtJVkDgTL3G8nmxIHJ-1" target="1NMxPis9Ar9ZYOywmdkB-16" edge="1">
          <mxGeometry relative="1" as="geometry">
            <Array as="points">
              <mxPoint x="1334" y="255" />
            </Array>
          </mxGeometry>
        </mxCell>
        <mxCell id="UMWtJVkDgTL3G8nmxIHJ-1" value="Approval of QTRIP by TMR Minister (9 June)" style="rhombus;whiteSpace=wrap;html=1;fontSize=10;fillColor=#d5e8d4;strokeColor=#82b366;" parent="1NMxPis9Ar9ZYOywmdkB-3" vertex="1">
          <mxGeometry x="1200" y="200" width="110" height="110" as="geometry" />
        </mxCell>
        <mxCell id="VlpEdn5kcAN5RxGuJyD6-2" value="&lt;font style=&quot;font-size: 10px;&quot;&gt;PDP coordinate draft QTRIP V0.3&lt;br&gt;tables and text) by Delivery areas&amp;nbsp;&lt;br&gt;by late April.&amp;nbsp;Data changes on a&lt;br&gt;case-by-case basis at PIP discretion.&amp;nbsp;&lt;br&gt;&lt;/font&gt;" style="shape=step;perimeter=stepPerimeter;whiteSpace=wrap;html=1;fixedSize=1;fillColor=#d5e8d4;strokeColor=#82b366;" parent="1NMxPis9Ar9ZYOywmdkB-3" vertex="1">
          <mxGeometry x="740" y="23" width="190" height="97" as="geometry" />
        </mxCell>
        <mxCell id="1NMxPis9Ar9ZYOywmdkB-4" value="CFO (Management&#xa;Reporting and Analysis)" style="swimlane;startSize=40;horizontal=0;fillColor=#dae8fc;strokeColor=#6c8ebf;" parent="1NMxPis9Ar9ZYOywmdkB-1" vertex="1">
          <mxGeometry y="720" width="1460" height="140" as="geometry" />
        </mxCell>
        <mxCell id="1NMxPis9Ar9ZYOywmdkB-10" value="&lt;font style=&quot;font-size: 10px;&quot;&gt;Finance updates allocation files to&lt;br&gt;align with Tridata. Provides to &lt;br&gt;PFA to reconcile internal budgets&amp;nbsp; &amp;nbsp;&lt;/font&gt;" style="shape=step;perimeter=stepPerimeter;whiteSpace=wrap;html=1;fixedSize=1;fillColor=#dae8fc;strokeColor=#6c8ebf;" parent="1NMxPis9Ar9ZYOywmdkB-4" vertex="1">
          <mxGeometry x="1280" y="20" width="180" height="80" as="geometry" />
        </mxCell>
        <mxCell id="1NMxPis9Ar9ZYOywmdkB-60" value="&lt;span style=&quot;font-size: 10px;&quot;&gt;CBRC decisions on budget submissions&lt;br&gt;circulated by Finance&lt;br&gt;&lt;/span&gt;" style="shape=step;perimeter=stepPerimeter;whiteSpace=wrap;html=1;fixedSize=1;fillColor=#dae8fc;strokeColor=#6c8ebf;" parent="1NMxPis9Ar9ZYOywmdkB-4" vertex="1">
          <mxGeometry x="867" y="20" width="255" height="80" as="geometry" />
        </mxCell>
        <mxCell id="1NMxPis9Ar9ZYOywmdkB-73" value="&lt;span style=&quot;font-size: 10px;&quot;&gt;3. FInance coordinates budget submissions&lt;br&gt;across TMR (20-30 submissions). Submissions&lt;br&gt;lodged to Cab Secretarat by 23 April&lt;br&gt;(indicative and subject to change)&lt;br&gt;&lt;/span&gt;" style="shape=step;perimeter=stepPerimeter;whiteSpace=wrap;html=1;fixedSize=1;fillColor=#dae8fc;strokeColor=#6c8ebf;" parent="1NMxPis9Ar9ZYOywmdkB-4" vertex="1">
          <mxGeometry x="524" y="20" width="250" height="80" as="geometry" />
        </mxCell>
        <mxCell id="wJCfLTcxVVwtHicSg1OE-1" value="Project/Program Budget submissions" style="rounded=0;whiteSpace=wrap;html=1;fontSize=11;fontStyle=1;fillColor=#dae8fc;strokeColor=#6c8ebf;" parent="1NMxPis9Ar9ZYOywmdkB-4" vertex="1">
          <mxGeometry x="130" y="20" width="280" height="60" as="geometry" />
        </mxCell>
        <mxCell id="wJCfLTcxVVwtHicSg1OE-3" style="edgeStyle=orthogonalEdgeStyle;rounded=0;orthogonalLoop=1;jettySize=auto;html=1;entryX=0;entryY=0.25;entryDx=0;entryDy=0;" parent="1NMxPis9Ar9ZYOywmdkB-4" source="wJCfLTcxVVwtHicSg1OE-1" target="1NMxPis9Ar9ZYOywmdkB-73" edge="1">
          <mxGeometry relative="1" as="geometry">
            <Array as="points">
              <mxPoint x="490" y="40" />
              <mxPoint x="531" y="40" />
              <mxPoint x="531" y="42" />
            </Array>
          </mxGeometry>
        </mxCell>
        <mxCell id="1NMxPis9Ar9ZYOywmdkB-5" value="Qld Treasury" style="swimlane;startSize=40;horizontal=0;" parent="1NMxPis9Ar9ZYOywmdkB-1" vertex="1">
          <mxGeometry y="860" width="1460" height="110" as="geometry" />
        </mxCell>
        <mxCell id="oTxpOXQzTmKI59_1Gvsa-2" value="&lt;span style=&quot;font-size: 10px;&quot;&gt;6.CBRC outcomes available mid-May&lt;br&gt;(CBRC dates indicative and can change).&lt;/span&gt;" style="shape=step;perimeter=stepPerimeter;whiteSpace=wrap;html=1;fixedSize=1;fillColor=#f5f5f5;fontColor=#333333;strokeColor=#666666;" parent="1NMxPis9Ar9ZYOywmdkB-5" vertex="1">
          <mxGeometry x="870" y="10" width="250" height="50" as="geometry" />
        </mxCell>
        <mxCell id="oTxpOXQzTmKI59_1Gvsa-6" value="&lt;span style=&quot;font-size: 10px;&quot;&gt;QT &lt;/span&gt;&lt;font style=&quot;font-size: 10px;&quot;&gt;Tridata updated to reflect budget&lt;br&gt;outcomes -&amp;nbsp; interfaces with TMR to&lt;br&gt;align internal budget allocations,&lt;/font&gt;&lt;span style=&quot;font-size: 10px;&quot;&gt;&lt;br&gt;&lt;/span&gt;" style="shape=step;perimeter=stepPerimeter;whiteSpace=wrap;html=1;fixedSize=1;fillColor=#f5f5f5;fontColor=#333333;strokeColor=#666666;" parent="1NMxPis9Ar9ZYOywmdkB-5" vertex="1">
          <mxGeometry x="1240" y="10" width="220" height="50" as="geometry" />
        </mxCell>
        <mxCell id="1NMxPis9Ar9ZYOywmdkB-63" style="edgeStyle=orthogonalEdgeStyle;rounded=0;orthogonalLoop=1;jettySize=auto;html=1;strokeWidth=1;fontSize=10;endSize=6;entryX=0.5;entryY=1;entryDx=0;entryDy=0;" parent="1NMxPis9Ar9ZYOywmdkB-1" source="1NMxPis9Ar9ZYOywmdkB-60" target="1NMxPis9Ar9ZYOywmdkB-19" edge="1">
          <mxGeometry relative="1" as="geometry">
            <mxPoint x="975" y="469" as="targetPoint" />
          </mxGeometry>
        </mxCell>
        <mxCell id="1NMxPis9Ar9ZYOywmdkB-89" value="" style="endArrow=classic;startArrow=classic;html=1;rounded=0;strokeWidth=0.2;fontSize=10;endSize=6;entryX=0.5;entryY=1;entryDx=0;entryDy=0;" parent="1NMxPis9Ar9ZYOywmdkB-1" target="1NMxPis9Ar9ZYOywmdkB-76" edge="1">
          <mxGeometry width="50" height="50" relative="1" as="geometry">
            <mxPoint x="614" y="360" as="sourcePoint" />
            <mxPoint x="630" y="370" as="targetPoint" />
          </mxGeometry>
        </mxCell>
        <mxCell id="1NMxPis9Ar9ZYOywmdkB-90" value="" style="endArrow=classic;startArrow=classic;html=1;rounded=0;strokeWidth=0.2;fontSize=10;endSize=6;entryX=0.5;entryY=1;entryDx=0;entryDy=0;exitX=0.5;exitY=0;exitDx=0;exitDy=0;" parent="1NMxPis9Ar9ZYOywmdkB-1" source="1NMxPis9Ar9ZYOywmdkB-19" target="1NMxPis9Ar9ZYOywmdkB-80" edge="1">
          <mxGeometry width="50" height="50" relative="1" as="geometry">
            <mxPoint x="580" y="420" as="sourcePoint" />
            <mxPoint x="630" y="370" as="targetPoint" />
          </mxGeometry>
        </mxCell>
        <mxCell id="oTxpOXQzTmKI59_1Gvsa-8" style="edgeStyle=orthogonalEdgeStyle;rounded=0;orthogonalLoop=1;jettySize=auto;html=1;entryX=0;entryY=0.5;entryDx=0;entryDy=0;fontFamily=Helvetica;fontSize=10;fontColor=#000000;" parent="1NMxPis9Ar9ZYOywmdkB-1" source="1NMxPis9Ar9ZYOywmdkB-73" target="oTxpOXQzTmKI59_1Gvsa-2" edge="1">
          <mxGeometry relative="1" as="geometry">
            <Array as="points">
              <mxPoint x="645" y="895" />
            </Array>
          </mxGeometry>
        </mxCell>
        <mxCell id="oTxpOXQzTmKI59_1Gvsa-9" style="edgeStyle=orthogonalEdgeStyle;rounded=0;orthogonalLoop=1;jettySize=auto;html=1;entryX=0.5;entryY=1;entryDx=0;entryDy=0;fontFamily=Helvetica;fontSize=10;fontColor=#000000;" parent="1NMxPis9Ar9ZYOywmdkB-1" source="oTxpOXQzTmKI59_1Gvsa-2" target="1NMxPis9Ar9ZYOywmdkB-60" edge="1">
          <mxGeometry relative="1" as="geometry" />
        </mxCell>
        <mxCell id="oTxpOXQzTmKI59_1Gvsa-14" style="edgeStyle=orthogonalEdgeStyle;rounded=0;orthogonalLoop=1;jettySize=auto;html=1;fontFamily=Helvetica;fontSize=10;fontColor=#000000;exitX=0.171;exitY=1.027;exitDx=0;exitDy=0;exitPerimeter=0;entryX=0.019;entryY=0.485;entryDx=0;entryDy=0;entryPerimeter=0;" parent="1NMxPis9Ar9ZYOywmdkB-1" source="oTxpOXQzTmKI59_1Gvsa-10" target="1NMxPis9Ar9ZYOywmdkB-75" edge="1">
          <mxGeometry relative="1" as="geometry">
            <Array as="points">
              <mxPoint x="176" y="410" />
            </Array>
            <mxPoint x="270" y="410" as="targetPoint" />
          </mxGeometry>
        </mxCell>
        <mxCell id="ymxG8OwJC7uEupaKyvza-1" style="edgeStyle=orthogonalEdgeStyle;rounded=0;orthogonalLoop=1;jettySize=auto;html=1;exitX=0.074;exitY=1.036;exitDx=0;exitDy=0;exitPerimeter=0;" parent="1NMxPis9Ar9ZYOywmdkB-1" source="oTxpOXQzTmKI59_1Gvsa-10" target="wJCfLTcxVVwtHicSg1OE-1" edge="1">
          <mxGeometry relative="1" as="geometry" />
        </mxCell>
        <mxCell id="VlpEdn5kcAN5RxGuJyD6-4" value="" style="endArrow=classic;startArrow=classic;html=1;rounded=0;strokeWidth=0.2;fontSize=10;endSize=6;exitX=0.5;exitY=0;exitDx=0;exitDy=0;entryX=0.5;entryY=1;entryDx=0;entryDy=0;" parent="1NMxPis9Ar9ZYOywmdkB-1" source="VlpEdn5kcAN5RxGuJyD6-2" target="VlpEdn5kcAN5RxGuJyD6-1" edge="1">
          <mxGeometry width="50" height="50" relative="1" as="geometry">
            <mxPoint x="624" y="370" as="sourcePoint" />
            <mxPoint x="830" y="330" as="targetPoint" />
          </mxGeometry>
        </mxCell>
        <mxCell id="UMWtJVkDgTL3G8nmxIHJ-12" value="&lt;b&gt;July - December&lt;br&gt;Preparation and development of TIPPS.&lt;/b&gt;&lt;br&gt;&lt;div style=&quot;text-align: left;&quot;&gt;&lt;ul&gt;&lt;li&gt;&lt;span style=&quot;font-size: 12px;&quot;&gt;Prioritise and endorse candidate investments and program balancing (Year 5 allocation)&amp;nbsp;&lt;/span&gt;&lt;/li&gt;&lt;li&gt;&lt;span style=&quot;font-size: 12px;&quot;&gt;Confirm and update 10-year funding by Finance&lt;/span&gt;&lt;/li&gt;&lt;li&gt;&lt;span style=&quot;font-size: 12px;&quot;&gt;TIPPS endorsed&amp;nbsp; by ICC and General Manager approval&lt;/span&gt;&lt;/li&gt;&lt;/ul&gt;&lt;/div&gt;" style="rounded=0;whiteSpace=wrap;html=1;" parent="1" vertex="1">
          <mxGeometry x="1480" y="80" width="170" height="290" as="geometry" />
        </mxCell>
        <mxCell id="LzJKV_o757LLN8FZL91X-20" value="" style="group" parent="1" vertex="1" connectable="0">
          <mxGeometry x="380" y="10" width="1200" height="55" as="geometry" />
        </mxCell>
        <mxCell id="LzJKV_o757LLN8FZL91X-2" value="&lt;b&gt;Index&lt;br&gt;&lt;br&gt;&lt;/b&gt;PDO: Program Delivery and Operations&lt;br&gt;PFA: Program&amp;nbsp; Funding and Analysis" style="text;html=1;align=left;verticalAlign=middle;resizable=0;points=[];autosize=1;strokeColor=none;fillColor=none;fontSize=10;" parent="LzJKV_o757LLN8FZL91X-20" vertex="1">
          <mxGeometry y="-5" width="200" height="60" as="geometry" />
        </mxCell>
        <mxCell id="LzJKV_o757LLN8FZL91X-3" value="&lt;br&gt;&lt;br&gt;PDP: Program Development and Performance&lt;br&gt;PMD: Program Management and Delivery" style="text;html=1;align=left;verticalAlign=middle;resizable=0;points=[];autosize=1;strokeColor=none;fillColor=none;fontSize=10;" parent="LzJKV_o757LLN8FZL91X-20" vertex="1">
          <mxGeometry x="190" y="-5" width="230" height="60" as="geometry" />
        </mxCell>
        <mxCell id="LzJKV_o757LLN8FZL91X-4" value="&lt;br&gt;&lt;br&gt;E&amp;amp;T: Engineering and Technology&lt;br&gt;TSP: Transport system planning" style="text;html=1;align=left;verticalAlign=middle;resizable=0;points=[];autosize=1;strokeColor=none;fillColor=none;fontSize=10;" parent="LzJKV_o757LLN8FZL91X-20" vertex="1">
          <mxGeometry x="400" y="-5" width="170" height="60" as="geometry" />
        </mxCell>
        <mxCell id="LzJKV_o757LLN8FZL91X-6" value="&lt;br&gt;&lt;br&gt;SIAM: Strategic Investment and Asset Management&lt;br&gt;3PCM: Portfolio management IT system" style="text;html=1;align=left;verticalAlign=middle;resizable=0;points=[];autosize=1;strokeColor=none;fillColor=none;fontSize=10;" parent="LzJKV_o757LLN8FZL91X-20" vertex="1">
          <mxGeometry x="560" y="-5" width="250" height="60" as="geometry" />
        </mxCell>
        <mxCell id="LzJKV_o757LLN8FZL91X-7" value="&lt;br&gt;&lt;br&gt;SRO: Senior Responsible Officer&lt;br&gt;3PCM: Portfolio management IT system" style="text;html=1;align=left;verticalAlign=middle;resizable=0;points=[];autosize=1;strokeColor=none;fillColor=none;fontSize=10;" parent="LzJKV_o757LLN8FZL91X-20" vertex="1">
          <mxGeometry x="800" y="-5" width="200" height="60" as="geometry" />
        </mxCell>
        <mxCell id="LzJKV_o757LLN8FZL91X-8" value="&lt;br&gt;&lt;br&gt;ICC: Infrastructure Investment Committee" style="text;html=1;align=left;verticalAlign=middle;resizable=0;points=[];autosize=1;strokeColor=none;fillColor=none;fontSize=10;" parent="LzJKV_o757LLN8FZL91X-20" vertex="1">
          <mxGeometry x="990" y="-5" width="210" height="50" as="geometry" />
        </mxCell>
        <mxCell id="LzJKV_o757LLN8FZL91X-21" value="&lt;b&gt;Key&lt;/b&gt;" style="text;html=1;align=left;verticalAlign=middle;resizable=0;points=[];autosize=1;strokeColor=none;fillColor=none;fontSize=10;" parent="1" vertex="1">
          <mxGeometry x="25" y="1" width="40" height="30" as="geometry" />
        </mxCell>
        <mxCell id="LzJKV_o757LLN8FZL91X-23" value="" style="group" parent="1" vertex="1" connectable="0">
          <mxGeometry x="20" y="35" width="355" height="30" as="geometry" />
        </mxCell>
        <mxCell id="LzJKV_o757LLN8FZL91X-9" value="" style="shape=step;perimeter=stepPerimeter;whiteSpace=wrap;html=1;fixedSize=1;fontSize=10;size=9.999999999999773;" parent="LzJKV_o757LLN8FZL91X-23" vertex="1">
          <mxGeometry x="85" y="5" width="30" height="20" as="geometry" />
        </mxCell>
        <mxCell id="LzJKV_o757LLN8FZL91X-12" value="QTRIP development activity" style="text;html=1;align=center;verticalAlign=middle;resizable=0;points=[];autosize=1;strokeColor=none;fillColor=none;fontSize=10;" parent="LzJKV_o757LLN8FZL91X-23" vertex="1">
          <mxGeometry x="105" width="150" height="30" as="geometry" />
        </mxCell>
        <mxCell id="LzJKV_o757LLN8FZL91X-13" value="" style="rhombus;whiteSpace=wrap;html=1;fontSize=10;" parent="LzJKV_o757LLN8FZL91X-23" vertex="1">
          <mxGeometry width="30" height="30" as="geometry" />
        </mxCell>
        <mxCell id="LzJKV_o757LLN8FZL91X-15" value="Decision" style="text;html=1;align=center;verticalAlign=middle;resizable=0;points=[];autosize=1;strokeColor=none;fillColor=none;fontSize=10;" parent="LzJKV_o757LLN8FZL91X-23" vertex="1">
          <mxGeometry x="25" width="60" height="30" as="geometry" />
        </mxCell>
        <mxCell id="LzJKV_o757LLN8FZL91X-18" value="" style="shape=document;whiteSpace=wrap;html=1;boundedLbl=1;fontSize=10;" parent="LzJKV_o757LLN8FZL91X-23" vertex="1">
          <mxGeometry x="255" y="5" width="30" height="20" as="geometry" />
        </mxCell>
        <mxCell id="LzJKV_o757LLN8FZL91X-19" value="Document" style="text;html=1;align=center;verticalAlign=middle;resizable=0;points=[];autosize=1;strokeColor=none;fillColor=none;fontSize=10;" parent="LzJKV_o757LLN8FZL91X-23" vertex="1">
          <mxGeometry x="285" width="70" height="30" as="geometry" />
        </mxCell>
      </root>
    </mxGraphModel>
  </diagram>
  <diagram id="vq0Zf7JVb8oz-WsY0t5Z" name="Financial process">
    <mxGraphModel dx="1595" dy="868" grid="1" gridSize="10" guides="1" tooltips="1" connect="1" arrows="1" fold="1" page="1" pageScale="1" pageWidth="1654" pageHeight="1169" math="0" shadow="0">
      <root>
        <mxCell id="0" />
        <mxCell id="1" parent="0" />
        <mxCell id="NMHns9GoFDPjdKpNw9aY-1" value="TMR REVENUE AND FUNDING FLOWS" style="swimlane;childLayout=stackLayout;resizeParent=1;resizeParentMax=0;horizontal=1;startSize=20;horizontalStack=0;strokeWidth=1;" parent="1" vertex="1">
          <mxGeometry x="120" y="30" width="1250" height="720" as="geometry" />
        </mxCell>
        <mxCell id="kgao66b1QHwsTAKo6r0Z-43" style="edgeStyle=orthogonalEdgeStyle;rounded=0;orthogonalLoop=1;jettySize=auto;html=1;entryX=0.5;entryY=0;entryDx=0;entryDy=0;fontFamily=Helvetica;fontSize=12;" parent="NMHns9GoFDPjdKpNw9aY-1" source="kgao66b1QHwsTAKo6r0Z-7" target="kgao66b1QHwsTAKo6r0Z-9" edge="1">
          <mxGeometry relative="1" as="geometry" />
        </mxCell>
        <mxCell id="kgao66b1QHwsTAKo6r0Z-40" style="edgeStyle=orthogonalEdgeStyle;rounded=0;orthogonalLoop=1;jettySize=auto;html=1;entryX=0.5;entryY=0;entryDx=0;entryDy=0;fontFamily=Helvetica;fontSize=12;" parent="NMHns9GoFDPjdKpNw9aY-1" source="kgao66b1QHwsTAKo6r0Z-2" target="kgao66b1QHwsTAKo6r0Z-5" edge="1">
          <mxGeometry relative="1" as="geometry" />
        </mxCell>
        <mxCell id="NMHns9GoFDPjdKpNw9aY-2" value="Qld Government&#xa; (QT)" style="swimlane;startSize=40;horizontal=0;strokeWidth=1;" parent="NMHns9GoFDPjdKpNw9aY-1" vertex="1">
          <mxGeometry y="20" width="1250" height="240" as="geometry" />
        </mxCell>
        <mxCell id="kgao66b1QHwsTAKo6r0Z-2" value="Tridata forward&lt;br&gt;estimate update" style="shape=parallelogram;perimeter=parallelogramPerimeter;whiteSpace=wrap;html=1;fixedSize=1;strokeWidth=1;" parent="NMHns9GoFDPjdKpNw9aY-2" vertex="1">
          <mxGeometry x="640" y="170" width="160" height="60" as="geometry" />
        </mxCell>
        <mxCell id="kgao66b1QHwsTAKo6r0Z-29" value="" style="shape=curlyBracket;whiteSpace=wrap;html=1;rounded=1;flipH=1;strokeWidth=1;rotation=-180;" parent="NMHns9GoFDPjdKpNw9aY-2" vertex="1">
          <mxGeometry x="830" y="50" width="20" height="180" as="geometry" />
        </mxCell>
        <mxCell id="kgao66b1QHwsTAKo6r0Z-39" style="edgeStyle=orthogonalEdgeStyle;rounded=0;orthogonalLoop=1;jettySize=auto;html=1;entryX=0.5;entryY=0;entryDx=0;entryDy=0;fontFamily=Helvetica;fontSize=12;" parent="NMHns9GoFDPjdKpNw9aY-2" source="kgao66b1QHwsTAKo6r0Z-31" target="kgao66b1QHwsTAKo6r0Z-2" edge="1">
          <mxGeometry relative="1" as="geometry" />
        </mxCell>
        <mxCell id="kgao66b1QHwsTAKo6r0Z-31" value="CBRC&lt;br&gt;outcomes" style="rhombus;whiteSpace=wrap;html=1;strokeWidth=1;" parent="NMHns9GoFDPjdKpNw9aY-2" vertex="1">
          <mxGeometry x="655" y="40" width="130" height="100" as="geometry" />
        </mxCell>
        <mxCell id="kgao66b1QHwsTAKo6r0Z-33" value="&lt;ul&gt;&lt;li&gt;&lt;span&gt;Adjustments to departmental funding allocations can only be made by CBRC based on departmental submissions.&amp;nbsp;&lt;/span&gt;&lt;/li&gt;&lt;li&gt;&lt;span style=&quot;background-color: initial;&quot;&gt;All capital and operating funding adjustments are then&lt;br&gt;reflected in Tridata (&lt;/span&gt;Queensland Treasury&#39;s WoG budget and reporting system) during Forward Estimates (FE) updates.&lt;/li&gt;&lt;li&gt;&lt;span style=&quot;color: rgb(51, 51, 51); background-color: rgb(251, 251, 251);&quot;&gt;TMR has three major budget rounds each financial year that correlate to Queensland Treasury FE updates of July, October and February. These are referred to as budget versions 1, 2 and 3.&lt;/span&gt;&lt;/li&gt;&lt;/ul&gt;&lt;p class=&quot;MsoNormal&quot;&gt;&lt;/p&gt;" style="text;html=1;strokeColor=none;fillColor=none;align=left;verticalAlign=top;whiteSpace=wrap;rounded=0;strokeWidth=1;" parent="NMHns9GoFDPjdKpNw9aY-2" vertex="1">
          <mxGeometry x="830" y="50" width="360" height="170" as="geometry" />
        </mxCell>
        <mxCell id="kgao66b1QHwsTAKo6r0Z-53" value="Queensland Treasury &lt;br&gt;consolidated fund" style="shape=parallelogram;perimeter=parallelogramPerimeter;whiteSpace=wrap;html=1;fixedSize=1;strokeWidth=1;fontFamily=Helvetica;fontSize=12;" parent="NMHns9GoFDPjdKpNw9aY-2" vertex="1">
          <mxGeometry x="70" y="82.5" width="210" height="75" as="geometry" />
        </mxCell>
        <mxCell id="kgao66b1QHwsTAKo6r0Z-64" value="&lt;h1&gt;REVENUE FLOWS&lt;/h1&gt;" style="text;html=1;strokeColor=none;fillColor=none;spacing=5;spacingTop=-20;whiteSpace=wrap;overflow=hidden;rounded=0;strokeWidth=1;fontFamily=Helvetica;fontSize=12;" parent="NMHns9GoFDPjdKpNw9aY-2" vertex="1">
          <mxGeometry x="210" y="6" width="220" height="50" as="geometry" />
        </mxCell>
        <mxCell id="kgao66b1QHwsTAKo6r0Z-65" value="&lt;h1&gt;FUNDING FLOWS&lt;/h1&gt;" style="text;html=1;strokeColor=none;fillColor=none;spacing=5;spacingTop=-20;whiteSpace=wrap;overflow=hidden;rounded=0;strokeWidth=1;fontFamily=Helvetica;fontSize=12;" parent="NMHns9GoFDPjdKpNw9aY-2" vertex="1">
          <mxGeometry x="790" y="6" width="220" height="50" as="geometry" />
        </mxCell>
        <mxCell id="R0BcNBtTmBV-_6BC8CI2-14" value="Weekly remittance to Queensland Treasury" style="rounded=0;whiteSpace=wrap;html=1;strokeWidth=1;" parent="NMHns9GoFDPjdKpNw9aY-2" vertex="1">
          <mxGeometry x="110" y="200" width="133.33" height="40" as="geometry" />
        </mxCell>
        <mxCell id="ZucL_8auy1gbdfvtZyR6-1" value="&lt;span style=&quot;background-color: initial;&quot;&gt;TMR retains 81.44% of registration revenue, reflected in TMR&#39;s funding envelope.&lt;/span&gt;" style="text;html=1;align=left;verticalAlign=middle;whiteSpace=wrap;rounded=0;fontSize=11;fillColor=#f8cecc;strokeColor=#b85450;" parent="NMHns9GoFDPjdKpNw9aY-2" vertex="1">
          <mxGeometry x="480" y="140" width="100" height="90" as="geometry" />
        </mxCell>
        <mxCell id="NMHns9GoFDPjdKpNw9aY-5" style="edgeStyle=orthogonalEdgeStyle;rounded=0;orthogonalLoop=1;jettySize=auto;html=1;exitX=0.5;exitY=0;exitDx=0;exitDy=0;entryX=0.5;entryY=1;entryDx=0;entryDy=0;" parent="NMHns9GoFDPjdKpNw9aY-1" source="NMHns9GoFDPjdKpNw9aY-3" target="NMHns9GoFDPjdKpNw9aY-2" edge="1">
          <mxGeometry relative="1" as="geometry" />
        </mxCell>
        <mxCell id="NMHns9GoFDPjdKpNw9aY-3" value="TMR&#xa; (Finance and Procurement)" style="swimlane;startSize=40;horizontal=0;strokeWidth=1;" parent="NMHns9GoFDPjdKpNw9aY-1" vertex="1">
          <mxGeometry y="260" width="1250" height="220" as="geometry" />
        </mxCell>
        <mxCell id="kgao66b1QHwsTAKo6r0Z-41" style="edgeStyle=orthogonalEdgeStyle;rounded=0;orthogonalLoop=1;jettySize=auto;html=1;entryX=0.5;entryY=0;entryDx=0;entryDy=0;fontFamily=Helvetica;fontSize=12;" parent="NMHns9GoFDPjdKpNw9aY-3" source="kgao66b1QHwsTAKo6r0Z-5" target="kgao66b1QHwsTAKo6r0Z-7" edge="1">
          <mxGeometry relative="1" as="geometry" />
        </mxCell>
        <mxCell id="kgao66b1QHwsTAKo6r0Z-5" value="TMR funding envelop reconciliation with CBRC funding outcomes" style="rounded=0;whiteSpace=wrap;html=1;strokeWidth=1;" parent="NMHns9GoFDPjdKpNw9aY-3" vertex="1">
          <mxGeometry x="620" y="50" width="200" height="60" as="geometry" />
        </mxCell>
        <mxCell id="kgao66b1QHwsTAKo6r0Z-7" value="Budget and Financial Planning update allocation files to match TRIDATA" style="shape=parallelogram;perimeter=parallelogramPerimeter;whiteSpace=wrap;html=1;fixedSize=1;strokeWidth=1;" parent="NMHns9GoFDPjdKpNw9aY-3" vertex="1">
          <mxGeometry x="620" y="150" width="200" height="60" as="geometry" />
        </mxCell>
        <mxCell id="kgao66b1QHwsTAKo6r0Z-34" value="" style="shape=curlyBracket;whiteSpace=wrap;html=1;rounded=1;flipH=1;strokeWidth=1;rotation=-180;" parent="NMHns9GoFDPjdKpNw9aY-3" vertex="1">
          <mxGeometry x="830" y="30" width="20" height="180" as="geometry" />
        </mxCell>
        <mxCell id="kgao66b1QHwsTAKo6r0Z-36" value="&lt;ul&gt;&lt;li&gt;Financial Planning and Analysis (FPA) in TMR reflects CBRC funding decisions across branch-level funding envelops in Allocation Files (spreadsheets).&amp;nbsp;&lt;/li&gt;&lt;li&gt;&lt;span style=&quot;line-height: 107%;&quot;&gt;&lt;font style=&quot;font-size: 12px;&quot;&gt;At the end of the financial year, Financial Performance and Systems complete Carryover (July) - a process for adjustments required to the following year’s budget.&lt;/font&gt;&lt;/span&gt;&lt;/li&gt;&lt;li&gt;&lt;b&gt;How does QTRIP funding in allocation files get reflected in 3PCM for QTRIP &lt;/b&gt;(&lt;b&gt;do Finance send to PF&amp;amp;A who reconcile in 3PCM)?&lt;/b&gt;&lt;/li&gt;&lt;li&gt;&lt;b&gt;How does non-QTRIP funding in allocation files get reflected in Branch budgets (do Finance send to branch finance areas to reconcile in SAP?)&lt;/b&gt;&lt;/li&gt;&lt;/ul&gt;&lt;p class=&quot;MsoNormal&quot;&gt;&lt;/p&gt;" style="text;html=1;strokeColor=none;fillColor=none;align=left;verticalAlign=top;whiteSpace=wrap;rounded=0;strokeWidth=1;" parent="NMHns9GoFDPjdKpNw9aY-3" vertex="1">
          <mxGeometry x="830" y="10" width="378.95" height="200" as="geometry" />
        </mxCell>
        <mxCell id="kgao66b1QHwsTAKo6r0Z-55" value="Fortnightly cash injection&lt;br&gt;reflected in allocation files&lt;br&gt;by Budget and Financial Planning" style="shape=parallelogram;perimeter=parallelogramPerimeter;whiteSpace=wrap;html=1;fixedSize=1;strokeWidth=1;fontFamily=Helvetica;fontSize=12;" parent="NMHns9GoFDPjdKpNw9aY-3" vertex="1">
          <mxGeometry x="310" y="60" width="250" height="60" as="geometry" />
        </mxCell>
        <mxCell id="kgao66b1QHwsTAKo6r0Z-25" value="" style="endArrow=none;dashed=1;html=1;rounded=0;" parent="NMHns9GoFDPjdKpNw9aY-3" edge="1">
          <mxGeometry y="20" width="50" height="50" relative="1" as="geometry">
            <mxPoint x="600" y="460" as="sourcePoint" />
            <mxPoint x="600" y="-240" as="targetPoint" />
          </mxGeometry>
        </mxCell>
        <mxCell id="R0BcNBtTmBV-_6BC8CI2-1" value="Cash and Banking team reconcile SAP with general ledger" style="rounded=0;whiteSpace=wrap;html=1;strokeWidth=1;" parent="NMHns9GoFDPjdKpNw9aY-3" vertex="1">
          <mxGeometry x="75" y="120" width="200" height="60" as="geometry" />
        </mxCell>
        <mxCell id="R0BcNBtTmBV-_6BC8CI2-66" value="LTSR Finance&lt;br&gt;remitance of&amp;nbsp; heavy vehicle regulator fee" style="rounded=0;whiteSpace=wrap;html=1;fontSize=11;" parent="NMHns9GoFDPjdKpNw9aY-3" vertex="1">
          <mxGeometry x="50" y="30" width="90" height="60" as="geometry" />
        </mxCell>
        <mxCell id="R0BcNBtTmBV-_6BC8CI2-70" style="edgeStyle=orthogonalEdgeStyle;rounded=0;orthogonalLoop=1;jettySize=auto;html=1;strokeColor=#000000;fontSize=11;fontColor=#CC0000;" parent="NMHns9GoFDPjdKpNw9aY-3" edge="1">
          <mxGeometry relative="1" as="geometry">
            <mxPoint x="140" y="60" as="targetPoint" />
            <mxPoint x="170" y="60" as="sourcePoint" />
          </mxGeometry>
        </mxCell>
        <mxCell id="NMHns9GoFDPjdKpNw9aY-4" value="TMR Branches" style="swimlane;startSize=40;horizontal=0;strokeWidth=1;" parent="NMHns9GoFDPjdKpNw9aY-1" vertex="1">
          <mxGeometry y="480" width="1250" height="240" as="geometry" />
        </mxCell>
        <mxCell id="kgao66b1QHwsTAKo6r0Z-12" value="Expenditure recorded&lt;br&gt;in SAP" style="shape=parallelogram;perimeter=parallelogramPerimeter;whiteSpace=wrap;html=1;fixedSize=1;strokeWidth=1;" parent="NMHns9GoFDPjdKpNw9aY-4" vertex="1">
          <mxGeometry x="645" y="150" width="150" height="60" as="geometry" />
        </mxCell>
        <mxCell id="kgao66b1QHwsTAKo6r0Z-46" style="edgeStyle=orthogonalEdgeStyle;rounded=0;orthogonalLoop=1;jettySize=auto;html=1;entryX=0.5;entryY=0;entryDx=0;entryDy=0;fontFamily=Helvetica;fontSize=12;" parent="NMHns9GoFDPjdKpNw9aY-4" source="kgao66b1QHwsTAKo6r0Z-9" target="kgao66b1QHwsTAKo6r0Z-12" edge="1">
          <mxGeometry relative="1" as="geometry" />
        </mxCell>
        <mxCell id="kgao66b1QHwsTAKo6r0Z-9" value="Program Funding and Analysis reconciles approved allocations to QTRIP funding in 3PCM. Branch Finance reconcile branch budgets." style="rounded=0;whiteSpace=wrap;html=1;strokeWidth=1;" parent="NMHns9GoFDPjdKpNw9aY-4" vertex="1">
          <mxGeometry x="620" y="50" width="200" height="70" as="geometry" />
        </mxCell>
        <mxCell id="kgao66b1QHwsTAKo6r0Z-37" value="&lt;ul style=&quot;&quot;&gt;&lt;li&gt;&lt;span style=&quot;background-color: initial;&quot;&gt;&lt;b&gt;QTRIP project funding and planned expenditure is reflected in 3PCM and recorded in SAP when expenditure is incurred based on project codes and cost centre numbers (BAU reflected in SAP based on cost centre numbers).&amp;nbsp; (Does SAP record QTRIIP expenditure based on project codes that align with 3PCM planned expenditure?)&lt;/b&gt;&lt;/span&gt;&lt;/li&gt;&lt;li&gt;&lt;span style=&quot;background-color: initial;&quot;&gt;Budgets are updated to reflect the current&amp;nbsp;&lt;/span&gt;funding allocations and expected timing of expenditure during Budget rounds. Dates are communicated through FP&amp;amp;A Key Account Managers (KAMs)&lt;/li&gt;&lt;li&gt;SAP is the source of truth for budgets and reporting. Branch&lt;br&gt;budgets must reconcile to their allocation files for revenue, expenses, depreciation, special funding and capital.&lt;/li&gt;&lt;/ul&gt;&lt;p class=&quot;MsoNormal&quot;&gt;&lt;/p&gt;" style="text;html=1;strokeColor=none;fillColor=none;align=left;verticalAlign=top;whiteSpace=wrap;rounded=0;strokeWidth=1;" parent="NMHns9GoFDPjdKpNw9aY-4" vertex="1">
          <mxGeometry x="830" y="30" width="400" height="180" as="geometry" />
        </mxCell>
        <mxCell id="kgao66b1QHwsTAKo6r0Z-38" value="" style="shape=curlyBracket;whiteSpace=wrap;html=1;rounded=1;flipH=1;strokeWidth=1;rotation=-180;" parent="NMHns9GoFDPjdKpNw9aY-4" vertex="1">
          <mxGeometry x="830" y="40" width="20" height="180" as="geometry" />
        </mxCell>
        <mxCell id="kgao66b1QHwsTAKo6r0Z-49" value="TRAILS tracks registration transactions and records them in SAP" style="shape=cylinder3;whiteSpace=wrap;html=1;boundedLbl=1;backgroundOutline=1;size=15;strokeWidth=1;fontFamily=Helvetica;fontSize=12;" parent="NMHns9GoFDPjdKpNw9aY-4" vertex="1">
          <mxGeometry x="107.09" y="30" width="135" height="100" as="geometry" />
        </mxCell>
        <mxCell id="R0BcNBtTmBV-_6BC8CI2-6" style="edgeStyle=orthogonalEdgeStyle;rounded=0;orthogonalLoop=1;jettySize=auto;html=1;entryX=0.5;entryY=1;entryDx=0;entryDy=0;entryPerimeter=0;strokeColor=#000000;fontSize=11;fontColor=#000000;" parent="NMHns9GoFDPjdKpNw9aY-4" source="kgao66b1QHwsTAKo6r0Z-50" target="kgao66b1QHwsTAKo6r0Z-49" edge="1">
          <mxGeometry relative="1" as="geometry" />
        </mxCell>
        <mxCell id="kgao66b1QHwsTAKo6r0Z-50" value="Customer Services Branch interfaces with public to collect revenuw" style="rounded=0;whiteSpace=wrap;html=1;strokeWidth=1;" parent="NMHns9GoFDPjdKpNw9aY-4" vertex="1">
          <mxGeometry x="100" y="160" width="149.47" height="44.84" as="geometry" />
        </mxCell>
        <mxCell id="QW4cM9V998VrkaMXxzDj-1" value="QTRIP expenditure&lt;br style=&quot;font-size: 11px;&quot;&gt;incured and recorded&lt;br&gt;through SAP&lt;br&gt;based on project code&lt;br&gt;and cost centre&amp;nbsp;" style="shape=parallelogram;perimeter=parallelogramPerimeter;whiteSpace=wrap;html=1;fixedSize=1;strokeWidth=1;fontFamily=Helvetica;fontSize=11;" parent="NMHns9GoFDPjdKpNw9aY-4" vertex="1">
          <mxGeometry x="270" y="50" width="158.5" height="74.84" as="geometry" />
        </mxCell>
        <mxCell id="FM0lbP13WK9GgCMavknw-2" value="Non-QTRIP expenditure&lt;br&gt;in SAP based&lt;br&gt;on cost centre" style="shape=parallelogram;perimeter=parallelogramPerimeter;whiteSpace=wrap;html=1;fixedSize=1;strokeWidth=1;fontFamily=Helvetica;fontSize=11;" parent="NMHns9GoFDPjdKpNw9aY-4" vertex="1">
          <mxGeometry x="450" y="50" width="118.5" height="74.84" as="geometry" />
        </mxCell>
        <mxCell id="l4H8PvoydFz3_QBa5k2O-1" style="edgeStyle=orthogonalEdgeStyle;rounded=0;orthogonalLoop=1;jettySize=auto;html=1;" parent="NMHns9GoFDPjdKpNw9aY-1" source="kgao66b1QHwsTAKo6r0Z-53" target="kgao66b1QHwsTAKo6r0Z-55" edge="1">
          <mxGeometry relative="1" as="geometry">
            <Array as="points">
              <mxPoint x="430" y="140" />
            </Array>
          </mxGeometry>
        </mxCell>
        <mxCell id="R0BcNBtTmBV-_6BC8CI2-12" style="edgeStyle=orthogonalEdgeStyle;rounded=0;orthogonalLoop=1;jettySize=auto;html=1;entryX=0.5;entryY=1;entryDx=0;entryDy=0;strokeColor=#000000;fontSize=11;fontColor=#000000;exitX=0.5;exitY=0;exitDx=0;exitDy=0;exitPerimeter=0;" parent="NMHns9GoFDPjdKpNw9aY-1" source="kgao66b1QHwsTAKo6r0Z-49" target="R0BcNBtTmBV-_6BC8CI2-1" edge="1">
          <mxGeometry relative="1" as="geometry">
            <mxPoint x="175.06060606060623" y="440" as="sourcePoint" />
          </mxGeometry>
        </mxCell>
        <mxCell id="UdNmxHdqU_Ivv4mIyDs--1" style="edgeStyle=orthogonalEdgeStyle;rounded=0;orthogonalLoop=1;jettySize=auto;html=1;entryX=0.5;entryY=0;entryDx=0;entryDy=0;strokeColor=#000000;" parent="NMHns9GoFDPjdKpNw9aY-1" source="kgao66b1QHwsTAKo6r0Z-55" target="QW4cM9V998VrkaMXxzDj-1" edge="1">
          <mxGeometry relative="1" as="geometry" />
        </mxCell>
        <mxCell id="UdNmxHdqU_Ivv4mIyDs--2" style="edgeStyle=orthogonalEdgeStyle;rounded=0;orthogonalLoop=1;jettySize=auto;html=1;entryX=0.641;entryY=-0.013;entryDx=0;entryDy=0;entryPerimeter=0;strokeColor=#000000;" parent="NMHns9GoFDPjdKpNw9aY-1" source="kgao66b1QHwsTAKo6r0Z-55" target="FM0lbP13WK9GgCMavknw-2" edge="1">
          <mxGeometry relative="1" as="geometry" />
        </mxCell>
        <mxCell id="ZucL_8auy1gbdfvtZyR6-8" style="edgeStyle=orthogonalEdgeStyle;rounded=0;orthogonalLoop=1;jettySize=auto;html=1;strokeColor=#CC0000;fontSize=11;fontColor=#CC0000;dashed=1;" parent="1" source="ZucL_8auy1gbdfvtZyR6-1" edge="1">
          <mxGeometry relative="1" as="geometry">
            <mxPoint x="560" y="235" as="targetPoint" />
          </mxGeometry>
        </mxCell>
        <mxCell id="R0BcNBtTmBV-_6BC8CI2-67" style="edgeStyle=orthogonalEdgeStyle;rounded=0;orthogonalLoop=1;jettySize=auto;html=1;strokeColor=#000000;fontSize=11;fontColor=#000000;" parent="1" source="R0BcNBtTmBV-_6BC8CI2-1" edge="1">
          <mxGeometry relative="1" as="geometry">
            <mxPoint x="295" y="289.9999999999999" as="targetPoint" />
          </mxGeometry>
        </mxCell>
        <mxCell id="R0BcNBtTmBV-_6BC8CI2-68" style="edgeStyle=orthogonalEdgeStyle;rounded=0;orthogonalLoop=1;jettySize=auto;html=1;strokeColor=#000000;fontSize=11;fontColor=#000000;" parent="1" source="R0BcNBtTmBV-_6BC8CI2-14" edge="1">
          <mxGeometry relative="1" as="geometry">
            <mxPoint x="296.66499999999996" y="209.9999999999999" as="targetPoint" />
          </mxGeometry>
        </mxCell>
      </root>
    </mxGraphModel>
  </diagram>
  <diagram id="X3dKkrn110yIOYmauAq2" name="Investment identification and prioritisation">
    <mxGraphModel dx="3855" dy="827" grid="1" gridSize="10" guides="1" tooltips="1" connect="1" arrows="1" fold="1" page="1" pageScale="1" pageWidth="2336" pageHeight="1654" math="0" shadow="0">
      <root>
        <mxCell id="0" />
        <mxCell id="1" parent="0" />
        <mxCell id="9Bqqdr80cg3n-UmQJmAP-1" value="Candidate project&lt;br&gt;&lt;span style=&quot;font-size: 12px;&quot;&gt;delivery areas can develop candidate projects based on the transport and economic requirements of individual regions.&amp;nbsp;&lt;/span&gt;&lt;br&gt;&lt;span style=&quot;font-size: 12px;&quot;&gt;The creation of all new candidate investments must be undertaken in the Oracle Primavera Portfolio Management (OPPM) system&lt;/span&gt;" style="whiteSpace=wrap;html=1;strokeWidth=4;" vertex="1" parent="1">
          <mxGeometry x="530" y="70" width="380" height="190" as="geometry" />
        </mxCell>
        <mxCell id="rAv-eNb2mt4PAesZk3n8-6" style="edgeStyle=orthogonalEdgeStyle;rounded=0;orthogonalLoop=1;jettySize=auto;html=1;entryX=1;entryY=0.5;entryDx=0;entryDy=0;" edge="1" parent="1" source="9Bqqdr80cg3n-UmQJmAP-2" target="9Bqqdr80cg3n-UmQJmAP-3">
          <mxGeometry relative="1" as="geometry" />
        </mxCell>
        <mxCell id="rAv-eNb2mt4PAesZk3n8-15" style="edgeStyle=orthogonalEdgeStyle;rounded=0;orthogonalLoop=1;jettySize=auto;html=1;entryX=0.5;entryY=0;entryDx=0;entryDy=0;" edge="1" parent="1" source="9Bqqdr80cg3n-UmQJmAP-2" target="rAv-eNb2mt4PAesZk3n8-3">
          <mxGeometry relative="1" as="geometry" />
        </mxCell>
        <mxCell id="rAv-eNb2mt4PAesZk3n8-16" style="edgeStyle=orthogonalEdgeStyle;rounded=0;orthogonalLoop=1;jettySize=auto;html=1;entryX=0.5;entryY=0;entryDx=0;entryDy=0;startArrow=none;" edge="1" parent="1" source="rAv-eNb2mt4PAesZk3n8-17" target="rAv-eNb2mt4PAesZk3n8-14">
          <mxGeometry relative="1" as="geometry" />
        </mxCell>
        <mxCell id="rAv-eNb2mt4PAesZk3n8-21" style="edgeStyle=orthogonalEdgeStyle;rounded=0;orthogonalLoop=1;jettySize=auto;html=1;" edge="1" parent="1" source="9Bqqdr80cg3n-UmQJmAP-2" target="rAv-eNb2mt4PAesZk3n8-20">
          <mxGeometry relative="1" as="geometry" />
        </mxCell>
        <mxCell id="9Bqqdr80cg3n-UmQJmAP-2" value="Assessment against to ensure alignment with the various Queensland and Australian Governments strategies by Portfolio Management&lt;br&gt;&lt;span style=&quot;font-size: 12px;&quot;&gt;&lt;br&gt;Candidate projects across the state are then assessed by the TMR portfolio management area to ensure the whole of network performance requirements are taken into consideration as part of the investment prioritisation process.&lt;/span&gt;" style="whiteSpace=wrap;html=1;strokeWidth=4;" vertex="1" parent="1">
          <mxGeometry x="530" y="280" width="380" height="170" as="geometry" />
        </mxCell>
        <mxCell id="9Bqqdr80cg3n-UmQJmAP-3" value="Queensland Government Strategies:&lt;br&gt;SIP&lt;br&gt;QTS&lt;br&gt;TCP&lt;br&gt;Regional Transport Plans&lt;br&gt;" style="whiteSpace=wrap;html=1;strokeWidth=4;" vertex="1" parent="1">
          <mxGeometry x="-490" y="210" width="360" height="180" as="geometry" />
        </mxCell>
        <mxCell id="rAv-eNb2mt4PAesZk3n8-9" style="edgeStyle=orthogonalEdgeStyle;rounded=0;orthogonalLoop=1;jettySize=auto;html=1;entryX=0.008;entryY=0.539;entryDx=0;entryDy=0;entryPerimeter=0;" edge="1" parent="1" source="rAv-eNb2mt4PAesZk3n8-1" target="9Bqqdr80cg3n-UmQJmAP-1">
          <mxGeometry relative="1" as="geometry" />
        </mxCell>
        <mxCell id="rAv-eNb2mt4PAesZk3n8-1" value="Current and future network needs or sector specific needs&lt;br&gt;&lt;span style=&quot;font-size: 12px;&quot;&gt;Network needs can be identified through i detailed studies (area/corridor/route) and investment strategies.&amp;nbsp;&lt;/span&gt;&lt;br&gt;&lt;span style=&quot;font-size: 12px;&quot;&gt;Queensland Road System Performance Plan (QRSPP). The QRSPP helps to inform the overall outcomes sought from the network and the relevant investment programs within TMR portfolio.&lt;/span&gt;" style="whiteSpace=wrap;html=1;strokeWidth=4;" vertex="1" parent="1">
          <mxGeometry x="-90" y="20" width="360" height="180" as="geometry" />
        </mxCell>
        <mxCell id="rAv-eNb2mt4PAesZk3n8-2" value="QTRIP &lt;br&gt;TMR develop a 4 year road investment pipeline, the Queensland Transport and Roads Investment Program (QTRIP). QTRIP outlines the current and planned investments in transport and road infrastructure over the next four years. QTRIP is developed in accordance with funding allocations identified by the Australian Government and Queensland Government in the respective annual budgets and is published annually in line with the state budget.&amp;nbsp;&lt;br&gt;&lt;span style=&quot;font-size: 12px;&quot;&gt;All TMR planned TIP investments for Years 1 to 4 are to be published in QTRIP each year and managed through TMR’s various program and project management systems.&lt;br&gt;All investments must be attributed to an Investment Program and Investment Sub-program&lt;/span&gt;&lt;br&gt;&lt;span style=&quot;font-size: 12px;&quot;&gt;All state-funded investments are considered to be committed if funding is allocated in Year 1 of the QTRIP and are indicative if funding is allocated in Years 2 to 4 of the QTRIP.&lt;/span&gt;&lt;br&gt;&lt;span style=&quot;font-size: 12px;&quot;&gt;All Australian Government investments with federal funding have committed funding as per Federal Budget outcomes, as outlined in the National Partnership Agreement (NPA) – Queensland Schedule.&lt;/span&gt;&lt;br&gt;&lt;span style=&quot;font-size: 12px;&quot;&gt;Once an investment budget is identified in QTRIP, the impact of any proposed changes to an investment’s scope, budget and/or project schedule must be considered and addressed by Project Owners and the relevant Investment Program.&lt;/span&gt;" style="whiteSpace=wrap;html=1;strokeWidth=4;" vertex="1" parent="1">
          <mxGeometry x="340" y="995" width="590" height="270" as="geometry" />
        </mxCell>
        <mxCell id="rAv-eNb2mt4PAesZk3n8-3" value="&lt;span style=&quot;font-size: 12px;&quot;&gt;Projects with an estimated budget of under $100m utilise the OnQ project management methodology.&lt;/span&gt;&lt;br&gt;&lt;span style=&quot;font-size: 12px;&quot;&gt;All investments between $50 million and $100 million require a Project Proposal, Options Analysis and/or Business Case to be produced in accordance with OnQ Project Management Methodology, with three IIC reviews following the completion of the Project Proposal, Options Analysis and Business Case.&lt;/span&gt;" style="whiteSpace=wrap;html=1;strokeWidth=4;" vertex="1" parent="1">
          <mxGeometry x="350" y="550" width="380" height="130" as="geometry" />
        </mxCell>
        <mxCell id="rAv-eNb2mt4PAesZk3n8-5" style="edgeStyle=orthogonalEdgeStyle;rounded=0;orthogonalLoop=1;jettySize=auto;html=1;entryX=0.996;entryY=0.392;entryDx=0;entryDy=0;entryPerimeter=0;" edge="1" parent="1" source="rAv-eNb2mt4PAesZk3n8-4" target="9Bqqdr80cg3n-UmQJmAP-1">
          <mxGeometry relative="1" as="geometry" />
        </mxCell>
        <mxCell id="rAv-eNb2mt4PAesZk3n8-4" value="Service levels / Road categorisation&lt;br&gt;&lt;span style=&quot;font-size: 12px;&quot;&gt;The existing service level is used by the delivery areas to inform candidate projects within the region.&lt;/span&gt;" style="whiteSpace=wrap;html=1;strokeWidth=4;" vertex="1" parent="1">
          <mxGeometry x="990" y="70" width="340" height="150" as="geometry" />
        </mxCell>
        <mxCell id="rAv-eNb2mt4PAesZk3n8-12" style="edgeStyle=orthogonalEdgeStyle;rounded=0;orthogonalLoop=1;jettySize=auto;html=1;" edge="1" parent="1" source="rAv-eNb2mt4PAesZk3n8-10" target="rAv-eNb2mt4PAesZk3n8-11">
          <mxGeometry relative="1" as="geometry" />
        </mxCell>
        <mxCell id="rAv-eNb2mt4PAesZk3n8-10" value="TIPPS (10-year investment plan)&lt;br&gt;&lt;span style=&quot;font-size: 12px;&quot;&gt;Each year, PIP leads and coordinates the development of TIPPS and the publication of QTRIP, in consultation with delivery areas and other stakeholders.&lt;br&gt;&lt;br&gt;&lt;/span&gt;" style="whiteSpace=wrap;html=1;strokeWidth=4;" vertex="1" parent="1">
          <mxGeometry x="1000" y="730" width="480" height="250" as="geometry" />
        </mxCell>
        <mxCell id="rAv-eNb2mt4PAesZk3n8-11" value="Timing&lt;br&gt;The TIPPS is part of the annual portfolio definition process and is generally finalised in the first half of each financial year.&lt;br&gt;&lt;span style=&quot;font-size: 12px;&quot;&gt;&lt;br&gt;The QTRIP Publication Review process is generally finalised in the second half of each financial year to allow the publication to be released soon after the State and Federal Budgets are released each year. The published QTRIP aligns with the TIPPS and balances to an agreed funding envelope.&lt;/span&gt;" style="whiteSpace=wrap;html=1;strokeWidth=4;" vertex="1" parent="1">
          <mxGeometry x="1000" y="1005" width="480" height="250" as="geometry" />
        </mxCell>
        <mxCell id="rAv-eNb2mt4PAesZk3n8-13" value="&lt;div&gt;&lt;span style=&quot;font-size: 12px;&quot;&gt;Delivery and reporting&lt;/span&gt;&lt;/div&gt;&lt;div&gt;&lt;span style=&quot;font-size: 12px;&quot;&gt;delivery areas are responsible for project delivery and associated reporting of the QTRIP program, which is subsequently monitored by PIP, Investment Programs and other key stakeholders using mainly the following mechanisms:&lt;/span&gt;&lt;/div&gt;&lt;div&gt;&lt;span style=&quot;font-size: 12px;&quot;&gt;• Monthly program performance reporting to the Infrastructure Investment Committee (IIC)&lt;/span&gt;&lt;/div&gt;&lt;div&gt;&lt;span style=&quot;font-size: 12px;&quot;&gt;• October and January program review periods&lt;/span&gt;&lt;/div&gt;&lt;div&gt;&lt;span style=&quot;font-size: 12px;&quot;&gt;• Quarterly Service Delivery Statements (SDS) KPI’s.&lt;/span&gt;&lt;/div&gt;" style="whiteSpace=wrap;html=1;strokeWidth=4;" vertex="1" parent="1">
          <mxGeometry x="510" y="1360" width="400" height="200" as="geometry" />
        </mxCell>
        <mxCell id="rAv-eNb2mt4PAesZk3n8-14" value="Business case&lt;br&gt;&lt;span style=&quot;font-size: 12px;&quot;&gt;Projects that are estimated to cost $100m or above are required to the Project Assessment Framework (PAF)&lt;br&gt;R&lt;/span&gt;&lt;span style=&quot;font-size: 12px;&quot;&gt;equire a Strategic Assessment of Service Requirements (SASR), Preliminary Evaluation and Business Case to be produced in accordance with the PAF and endorsed by the IIC through the Major Project gating process&lt;/span&gt;" style="whiteSpace=wrap;html=1;strokeWidth=4;" vertex="1" parent="1">
          <mxGeometry x="780" y="550" width="380" height="130" as="geometry" />
        </mxCell>
        <mxCell id="rAv-eNb2mt4PAesZk3n8-17" value="&#xa;&lt;span style=&quot;color: rgb(0, 0, 0); font-family: Helvetica; font-size: 12px; font-style: normal; font-variant-ligatures: normal; font-variant-caps: normal; font-weight: 400; letter-spacing: normal; orphans: 2; text-align: center; text-indent: 0px; text-transform: none; widows: 2; word-spacing: 0px; -webkit-text-stroke-width: 0px; background-color: rgb(251, 251, 251); text-decoration-thickness: initial; text-decoration-style: initial; text-decoration-color: initial; float: none; display: inline !important;&quot;&gt;All projects are required to produce a business case.&lt;span&gt;&amp;nbsp;&lt;/span&gt;&lt;/span&gt;&#xa;&#xa;" style="text;html=1;align=center;verticalAlign=middle;resizable=0;points=[];autosize=1;strokeColor=none;fillColor=none;strokeWidth=4;" vertex="1" parent="1">
          <mxGeometry x="580" y="460" width="310" height="60" as="geometry" />
        </mxCell>
        <mxCell id="rAv-eNb2mt4PAesZk3n8-18" value="" style="edgeStyle=orthogonalEdgeStyle;rounded=0;orthogonalLoop=1;jettySize=auto;html=1;entryX=0.5;entryY=0;entryDx=0;entryDy=0;endArrow=none;" edge="1" parent="1" source="9Bqqdr80cg3n-UmQJmAP-2" target="rAv-eNb2mt4PAesZk3n8-17">
          <mxGeometry relative="1" as="geometry">
            <mxPoint x="720" y="450" as="sourcePoint" />
            <mxPoint x="970" y="550" as="targetPoint" />
          </mxGeometry>
        </mxCell>
        <mxCell id="rAv-eNb2mt4PAesZk3n8-19" value="&lt;span style=&quot;font-size: 12px;&quot;&gt;All investments (planning and infrastructure) with a budget in Year 1 and/or Year 2 of the QTRIP must have either:&lt;br&gt;&lt;/span&gt;*&amp;nbsp;&lt;span style=&quot;background-color: initial; font-size: 12px;&quot;&gt;An approved Project Nomination Form&lt;/span&gt;&lt;div&gt;&lt;span style=&quot;font-size: 12px;&quot;&gt;o An approved or underway OnQ Project Proposal or PAF SASR&lt;/span&gt;&lt;/div&gt;&lt;div&gt;&lt;span style=&quot;font-size: 12px;&quot;&gt;o OnQ Business Case for infrastructure Type 1 and Type 2 projects approved by the Project Owner, or PAF Business Case approved by the Project Owner and IIC&lt;/span&gt;&lt;/div&gt;&lt;div&gt;&lt;span style=&quot;font-size: 12px;&quot;&gt;o OnQ Project Scope Identification Form approved by the Project Owner for infrastructure Type 3 projects&lt;/span&gt;&lt;/div&gt;&lt;div&gt;&lt;span style=&quot;font-size: 12px;&quot;&gt;All investments less than $100 million with a budget in Year 3 and/or Year 4 of the QTRIP must have at least an approved OnQ Project Proposal approved by the Project Owner before being included in Years 3 and 4 of the QTRIP.&lt;/span&gt;&lt;br&gt;&lt;/div&gt;" style="whiteSpace=wrap;html=1;strokeWidth=4;" vertex="1" parent="1">
          <mxGeometry x="350" y="700" width="570" height="150" as="geometry" />
        </mxCell>
        <mxCell id="rAv-eNb2mt4PAesZk3n8-20" value="AG projects&lt;br&gt;&lt;span style=&quot;font-size: 12px;&quot;&gt;Project Proposal Reports (PPRs) are required to be submitted and approved by the Australian Government for all investments within the current NPA. As part of submission of a PPR, an approved Business Case may be provided as an attachment. For all investments within the current NPA requiring $250 million or more of federal funding, the Business Case is required to be submitted to Infrastructure Australia for assessment as part of the federal funding approval process.&lt;/span&gt;" style="whiteSpace=wrap;html=1;strokeWidth=4;" vertex="1" parent="1">
          <mxGeometry x="-140" y="712" width="360" height="230" as="geometry" />
        </mxCell>
        <mxCell id="rAv-eNb2mt4PAesZk3n8-22" value="&lt;span style=&quot;font-size: 12px;&quot;&gt;Unfunded projects seeking funding&lt;br&gt;For Project Proposals not included in QTRIP, Project Owners may submit a proposal to the relevant IPM-O and, if applicable, using the IIC Submission template as guidance (submission to be approved by the SRO), outline investment details, justification for funding, risk of investment not being funded and proposed funding sought. The proposal will be considered in the context of other competing unfunded priorities, and both portfolio and investment program implications to be reported to IIC and further considered as part of QTRIP program reviews (October and January of each year).&lt;/span&gt;" style="whiteSpace=wrap;html=1;strokeWidth=4;" vertex="1" parent="1">
          <mxGeometry x="1610" y="790" width="430" height="250" as="geometry" />
        </mxCell>
      </root>
    </mxGraphModel>
  </diagram>
  <diagram id="prtHgNgQTEPvFCAcTncT" name="Investment prioritisation">
    <mxGraphModel dx="2279" dy="1240" grid="1" gridSize="10" guides="1" tooltips="1" connect="1" arrows="1" fold="1" page="1" pageScale="1" pageWidth="1654" pageHeight="1169" math="0" shadow="0">
      <root>
        <mxCell id="0" />
        <mxCell id="1" parent="0" />
        <mxCell id="dNxyNK7c78bLwvsdeMH5-19" value="Pool" style="swimlane;html=1;childLayout=stackLayout;resizeParent=1;resizeParentMax=0;horizontal=0;startSize=20;horizontalStack=0;" parent="1" vertex="1">
          <mxGeometry x="200" y="90" width="2912.5" height="1160" as="geometry" />
        </mxCell>
        <mxCell id="dNxyNK7c78bLwvsdeMH5-20" value="DELIVERY AREAS (including PDO districts and non-PDO areas such as Translink)" style="swimlane;html=1;startSize=70;horizontal=0;" parent="dNxyNK7c78bLwvsdeMH5-19" vertex="1">
          <mxGeometry x="20" width="2892.5" height="420" as="geometry" />
        </mxCell>
        <mxCell id="J4HFlhDhFd4bc666YAR--60" value="" style="endArrow=none;dashed=1;html=1;dashPattern=1 3;strokeWidth=2;rounded=0;entryX=0;entryY=1;entryDx=0;entryDy=0;exitX=0.25;exitY=1;exitDx=0;exitDy=0;" parent="dNxyNK7c78bLwvsdeMH5-20" source="dNxyNK7c78bLwvsdeMH5-22" edge="1">
          <mxGeometry width="50" height="50" relative="1" as="geometry">
            <mxPoint x="730" y="940" as="sourcePoint" />
            <mxPoint x="729.9999999999995" y="-20" as="targetPoint" />
          </mxGeometry>
        </mxCell>
        <mxCell id="CpiX4Lv9qsMPHa_85J-V-12" style="edgeStyle=orthogonalEdgeStyle;rounded=0;orthogonalLoop=1;jettySize=auto;html=1;entryX=0;entryY=0.5;entryDx=0;entryDy=0;" parent="dNxyNK7c78bLwvsdeMH5-20" source="J4HFlhDhFd4bc666YAR--69" target="J4HFlhDhFd4bc666YAR--165" edge="1">
          <mxGeometry relative="1" as="geometry" />
        </mxCell>
        <mxCell id="J4HFlhDhFd4bc666YAR--69" value="&lt;b style=&quot;text-decoration-line: underline;&quot;&gt;QTRIP PUBLICATION REVIEW ACTIVITIES&lt;br&gt;&lt;/b&gt;During development of the new QTRIP and review of continuing program, the Regions and PMD must&lt;br&gt;adjust and confirm budgets, schedules and expenditure, and development and approve the new QTRIP program.&lt;br&gt;&lt;br&gt;&lt;b&gt;PDO region reviews (&lt;/b&gt;&lt;b&gt;Regional Director and PMD approval)&lt;/b&gt;&lt;br&gt;There are six PDO regions and 12 districts.&lt;br&gt;&lt;br&gt;&lt;span style=&quot;font-weight: bold;&quot;&gt;Non-PDO program reviews&amp;nbsp;&lt;/span&gt;(&lt;i&gt;&lt;b&gt;approval?&lt;/b&gt;&lt;/i&gt;)&lt;br&gt;&lt;span style=&quot;white-space: pre;&quot;&gt; &lt;/span&gt;Includes Maritime, Passenger Transport Infrastructure Investment, Queensland Rail,&lt;br&gt;Rail Infrastructure Improvements, Transport System Planning Program" style="rounded=0;whiteSpace=wrap;html=1;" parent="dNxyNK7c78bLwvsdeMH5-20" vertex="1">
          <mxGeometry x="1440" y="145" width="710" height="210" as="geometry" />
        </mxCell>
        <mxCell id="J4HFlhDhFd4bc666YAR--109" value="" style="endArrow=none;dashed=1;html=1;dashPattern=1 3;strokeWidth=2;rounded=0;entryX=0;entryY=1;entryDx=0;entryDy=0;" parent="dNxyNK7c78bLwvsdeMH5-20" edge="1">
          <mxGeometry x="20" width="50" height="50" relative="1" as="geometry">
            <mxPoint x="1440" y="2100" as="sourcePoint" />
            <mxPoint x="1437.4999999999995" as="targetPoint" />
          </mxGeometry>
        </mxCell>
        <mxCell id="J4HFlhDhFd4bc666YAR--110" value="" style="endArrow=none;dashed=1;html=1;dashPattern=1 3;strokeWidth=2;rounded=0;entryX=0;entryY=1;entryDx=0;entryDy=0;" parent="dNxyNK7c78bLwvsdeMH5-20" edge="1">
          <mxGeometry x="20" width="50" height="50" relative="1" as="geometry">
            <mxPoint x="2152.5" y="2099.9999999999995" as="sourcePoint" />
            <mxPoint x="2150" as="targetPoint" />
          </mxGeometry>
        </mxCell>
        <mxCell id="J4HFlhDhFd4bc666YAR--165" value="&lt;b&gt;SRO/PDO&lt;br&gt;approval&lt;/b&gt;&lt;br&gt;15 Investment&lt;br&gt;Programs" style="rhombus;whiteSpace=wrap;html=1;" parent="dNxyNK7c78bLwvsdeMH5-20" vertex="1">
          <mxGeometry x="2215" y="170" width="130" height="160" as="geometry" />
        </mxCell>
        <mxCell id="dNxyNK7c78bLwvsdeMH5-21" value="PORTFOLIO INVESTMENT AND PLANNING&lt;br&gt;(SIAM / PD&amp;amp;P leads QTRIP)&amp;nbsp;" style="swimlane;html=1;startSize=70;horizontal=0;" parent="dNxyNK7c78bLwvsdeMH5-19" vertex="1">
          <mxGeometry x="20" y="420" width="2892.5" height="360" as="geometry" />
        </mxCell>
        <mxCell id="J4HFlhDhFd4bc666YAR--175" value="" style="edgeStyle=orthogonalEdgeStyle;rounded=0;orthogonalLoop=1;jettySize=auto;html=1;" parent="dNxyNK7c78bLwvsdeMH5-21" source="J4HFlhDhFd4bc666YAR--126" target="J4HFlhDhFd4bc666YAR--174" edge="1">
          <mxGeometry relative="1" as="geometry" />
        </mxCell>
        <mxCell id="J4HFlhDhFd4bc666YAR--126" value="&lt;b&gt;&lt;u&gt;QTRIP DEVELOPMENT&lt;/u&gt;&lt;/b&gt;&lt;br&gt;Coordinate the development of the new QTRIP and review of existing QTRIP in collaboration with PDO and program SROs.&lt;br&gt;&amp;nbsp; Confirm four-year funding allocation with Finance and Procurement.&lt;br&gt;State budget preparation activities.&lt;br&gt;&lt;b&gt;PD&amp;amp;P responsible&lt;/b&gt;" style="rounded=0;whiteSpace=wrap;html=1;" parent="dNxyNK7c78bLwvsdeMH5-21" vertex="1">
          <mxGeometry x="1440" y="150" width="710" height="160" as="geometry" />
        </mxCell>
        <mxCell id="J4HFlhDhFd4bc666YAR--127" value="Excel schedule of QTRIP published details and timelines" style="shape=document;whiteSpace=wrap;html=1;boundedLbl=1;rounded=0;" parent="dNxyNK7c78bLwvsdeMH5-21" vertex="1">
          <mxGeometry x="1706.43" y="40" width="177.14" height="80" as="geometry" />
        </mxCell>
        <mxCell id="J4HFlhDhFd4bc666YAR--174" value="DRAFT QTRIP" style="shape=document;whiteSpace=wrap;html=1;boundedLbl=1;rounded=0;" parent="dNxyNK7c78bLwvsdeMH5-21" vertex="1">
          <mxGeometry x="2215" y="150" width="130" height="160" as="geometry" />
        </mxCell>
        <mxCell id="J4HFlhDhFd4bc666YAR--182" value="" style="edgeStyle=orthogonalEdgeStyle;rounded=0;orthogonalLoop=1;jettySize=auto;html=1;" parent="dNxyNK7c78bLwvsdeMH5-21" source="J4HFlhDhFd4bc666YAR--178" target="J4HFlhDhFd4bc666YAR--181" edge="1">
          <mxGeometry relative="1" as="geometry" />
        </mxCell>
        <mxCell id="J4HFlhDhFd4bc666YAR--178" value="QTRIP &lt;br&gt;Minister&lt;br&gt;approval" style="rhombus;whiteSpace=wrap;html=1;rounded=0;" parent="dNxyNK7c78bLwvsdeMH5-21" vertex="1">
          <mxGeometry x="2460" y="150" width="130" height="160" as="geometry" />
        </mxCell>
        <mxCell id="CpiX4Lv9qsMPHa_85J-V-31" style="edgeStyle=orthogonalEdgeStyle;rounded=0;orthogonalLoop=1;jettySize=auto;html=1;entryX=0;entryY=0.5;entryDx=0;entryDy=0;" parent="dNxyNK7c78bLwvsdeMH5-21" source="J4HFlhDhFd4bc666YAR--181" target="J4HFlhDhFd4bc666YAR--185" edge="1">
          <mxGeometry relative="1" as="geometry" />
        </mxCell>
        <mxCell id="J4HFlhDhFd4bc666YAR--181" value="QTRIP Cabinet endorsement" style="rhombus;whiteSpace=wrap;html=1;rounded=0;" parent="dNxyNK7c78bLwvsdeMH5-21" vertex="1">
          <mxGeometry x="2610" y="150" width="130" height="160" as="geometry" />
        </mxCell>
        <mxCell id="J4HFlhDhFd4bc666YAR--185" value="Published QTRIP" style="shape=document;whiteSpace=wrap;html=1;boundedLbl=1;rounded=0;" parent="dNxyNK7c78bLwvsdeMH5-21" vertex="1">
          <mxGeometry x="2760" y="150" width="130" height="160" as="geometry" />
        </mxCell>
        <mxCell id="CpiX4Lv9qsMPHa_85J-V-23" value="" style="endArrow=classic;startArrow=classic;html=1;rounded=0;entryX=0.528;entryY=0.923;entryDx=0;entryDy=0;entryPerimeter=0;exitX=0.5;exitY=0;exitDx=0;exitDy=0;" parent="dNxyNK7c78bLwvsdeMH5-21" source="J4HFlhDhFd4bc666YAR--126" edge="1">
          <mxGeometry width="50" height="50" relative="1" as="geometry">
            <mxPoint x="1794.83" y="155" as="sourcePoint" />
            <mxPoint x="1794.7899200000002" y="108.83999999999992" as="targetPoint" />
          </mxGeometry>
        </mxCell>
        <mxCell id="CpiX4Lv9qsMPHa_85J-V-35" style="edgeStyle=orthogonalEdgeStyle;rounded=0;orthogonalLoop=1;jettySize=auto;html=1;entryX=0;entryY=0.5;entryDx=0;entryDy=0;" parent="dNxyNK7c78bLwvsdeMH5-21" source="J4HFlhDhFd4bc666YAR--111" target="J4HFlhDhFd4bc666YAR--131" edge="1">
          <mxGeometry relative="1" as="geometry" />
        </mxCell>
        <mxCell id="J4HFlhDhFd4bc666YAR--111" value="&lt;b&gt;&lt;u&gt;ANNUAL TIPPS PREPERATION&lt;br&gt;&lt;/u&gt;&lt;/b&gt;Confirm Strategic priorities&lt;br&gt;Determine indicative 10-year funding envelope (Finance and Procurement and PIP)&lt;br&gt;Review current portfolio investment status&lt;br&gt;Review 10-year funding profile&lt;br&gt;Validate and prioritise candidate investments" style="rounded=0;whiteSpace=wrap;html=1;fontFamily=Helvetica;fontSize=12;fontColor=#000000;align=center;" parent="dNxyNK7c78bLwvsdeMH5-21" vertex="1">
          <mxGeometry x="70" y="30" width="640" height="100" as="geometry" />
        </mxCell>
        <mxCell id="J4HFlhDhFd4bc666YAR--131" value="&lt;b&gt;&lt;u&gt;TIPPS development and review of existing investment program&lt;br&gt;&lt;/u&gt;&lt;/b&gt;Identify and prioritise new candidate projects, develop proposed budgets and milestones&lt;b&gt;&lt;u&gt;&lt;br&gt;&lt;/u&gt;&lt;/b&gt;" style="rounded=0;whiteSpace=wrap;html=1;" parent="dNxyNK7c78bLwvsdeMH5-21" vertex="1">
          <mxGeometry x="750" y="30" width="870" height="100" as="geometry" />
        </mxCell>
        <mxCell id="dNxyNK7c78bLwvsdeMH5-22" value="FINANCE AND&lt;br&gt;PROCUREMENT" style="swimlane;html=1;startSize=70;horizontal=0;" parent="dNxyNK7c78bLwvsdeMH5-19" vertex="1">
          <mxGeometry x="20" y="780" width="2892.5" height="150" as="geometry" />
        </mxCell>
        <mxCell id="J4HFlhDhFd4bc666YAR--172" value="Confirm QTRIP funding allocation&lt;br&gt;&lt;b&gt;(CFO approval?)&lt;/b&gt;" style="rounded=0;whiteSpace=wrap;html=1;" parent="dNxyNK7c78bLwvsdeMH5-22" vertex="1">
          <mxGeometry x="1670" y="30" width="250" height="60" as="geometry" />
        </mxCell>
        <mxCell id="J4HFlhDhFd4bc666YAR--123" value="INFRASTRUCTURE INVESTMENT&lt;br&gt;COMMITTEE (DG Chair)" style="swimlane;html=1;startSize=70;horizontal=0;" parent="dNxyNK7c78bLwvsdeMH5-19" vertex="1">
          <mxGeometry x="20" y="930" width="2892.5" height="230" as="geometry" />
        </mxCell>
        <mxCell id="J4HFlhDhFd4bc666YAR--176" value="IIC&amp;nbsp; endorsed" style="rhombus;whiteSpace=wrap;html=1;rounded=0;" parent="J4HFlhDhFd4bc666YAR--123" vertex="1">
          <mxGeometry x="2350" y="21" width="130" height="160" as="geometry" />
        </mxCell>
        <mxCell id="CpiX4Lv9qsMPHa_85J-V-9" style="edgeStyle=orthogonalEdgeStyle;rounded=0;orthogonalLoop=1;jettySize=auto;html=1;entryX=0.5;entryY=0;entryDx=0;entryDy=0;" parent="dNxyNK7c78bLwvsdeMH5-19" source="J4HFlhDhFd4bc666YAR--165" target="J4HFlhDhFd4bc666YAR--174" edge="1">
          <mxGeometry relative="1" as="geometry" />
        </mxCell>
        <mxCell id="CpiX4Lv9qsMPHa_85J-V-11" style="edgeStyle=orthogonalEdgeStyle;rounded=0;orthogonalLoop=1;jettySize=auto;html=1;entryX=0.5;entryY=0;entryDx=0;entryDy=0;" parent="dNxyNK7c78bLwvsdeMH5-19" source="J4HFlhDhFd4bc666YAR--174" target="J4HFlhDhFd4bc666YAR--176" edge="1">
          <mxGeometry relative="1" as="geometry">
            <mxPoint x="2429.999999999999" y="930" as="targetPoint" />
          </mxGeometry>
        </mxCell>
        <mxCell id="CpiX4Lv9qsMPHa_85J-V-24" style="edgeStyle=orthogonalEdgeStyle;rounded=0;orthogonalLoop=1;jettySize=auto;html=1;entryX=0.5;entryY=0;entryDx=0;entryDy=0;" parent="dNxyNK7c78bLwvsdeMH5-19" source="J4HFlhDhFd4bc666YAR--126" target="J4HFlhDhFd4bc666YAR--172" edge="1">
          <mxGeometry relative="1" as="geometry" />
        </mxCell>
        <mxCell id="CpiX4Lv9qsMPHa_85J-V-25" style="edgeStyle=orthogonalEdgeStyle;rounded=0;orthogonalLoop=1;jettySize=auto;html=1;entryX=0.509;entryY=0.877;entryDx=0;entryDy=0;entryPerimeter=0;" parent="dNxyNK7c78bLwvsdeMH5-19" source="J4HFlhDhFd4bc666YAR--172" target="J4HFlhDhFd4bc666YAR--174" edge="1">
          <mxGeometry relative="1" as="geometry" />
        </mxCell>
        <mxCell id="CpiX4Lv9qsMPHa_85J-V-26" style="edgeStyle=orthogonalEdgeStyle;rounded=0;orthogonalLoop=1;jettySize=auto;html=1;entryX=0.5;entryY=1;entryDx=0;entryDy=0;" parent="dNxyNK7c78bLwvsdeMH5-19" source="J4HFlhDhFd4bc666YAR--176" target="J4HFlhDhFd4bc666YAR--178" edge="1">
          <mxGeometry relative="1" as="geometry">
            <Array as="points">
              <mxPoint x="2545" y="1151" />
            </Array>
          </mxGeometry>
        </mxCell>
        <mxCell id="dNxyNK7c78bLwvsdeMH5-24" value="July" style="rounded=0;whiteSpace=wrap;html=1;fontFamily=Helvetica;fontSize=12;fontColor=#000000;align=center;" parent="1" vertex="1">
          <mxGeometry x="210" y="80" width="236" height="30" as="geometry" />
        </mxCell>
        <mxCell id="J4HFlhDhFd4bc666YAR--98" value="August" style="rounded=0;whiteSpace=wrap;html=1;fontFamily=Helvetica;fontSize=12;fontColor=#000000;align=center;" parent="1" vertex="1">
          <mxGeometry x="447" y="80" width="236" height="30" as="geometry" />
        </mxCell>
        <mxCell id="J4HFlhDhFd4bc666YAR--99" value="October" style="rounded=0;whiteSpace=wrap;html=1;fontFamily=Helvetica;fontSize=12;fontColor=#000000;align=center;" parent="1" vertex="1">
          <mxGeometry x="918" y="80" width="236" height="30" as="geometry" />
        </mxCell>
        <mxCell id="J4HFlhDhFd4bc666YAR--100" value="September" style="rounded=0;whiteSpace=wrap;html=1;fontFamily=Helvetica;fontSize=12;fontColor=#000000;align=center;" parent="1" vertex="1">
          <mxGeometry x="681" y="80" width="236" height="30" as="geometry" />
        </mxCell>
        <mxCell id="J4HFlhDhFd4bc666YAR--101" value="December" style="rounded=0;whiteSpace=wrap;html=1;fontFamily=Helvetica;fontSize=12;fontColor=#000000;align=center;" parent="1" vertex="1">
          <mxGeometry x="1392" y="80" width="236" height="30" as="geometry" />
        </mxCell>
        <mxCell id="J4HFlhDhFd4bc666YAR--102" value="November" style="rounded=0;whiteSpace=wrap;html=1;fontFamily=Helvetica;fontSize=12;fontColor=#000000;align=center;" parent="1" vertex="1">
          <mxGeometry x="1155" y="80" width="236" height="30" as="geometry" />
        </mxCell>
        <mxCell id="J4HFlhDhFd4bc666YAR--103" value="February" style="rounded=0;whiteSpace=wrap;html=1;fontFamily=Helvetica;fontSize=12;fontColor=#000000;align=center;" parent="1" vertex="1">
          <mxGeometry x="1865" y="80" width="236" height="30" as="geometry" />
        </mxCell>
        <mxCell id="J4HFlhDhFd4bc666YAR--104" value="January" style="rounded=0;whiteSpace=wrap;html=1;fontFamily=Helvetica;fontSize=12;fontColor=#000000;align=center;" parent="1" vertex="1">
          <mxGeometry x="1628" y="80" width="236" height="30" as="geometry" />
        </mxCell>
        <mxCell id="J4HFlhDhFd4bc666YAR--105" value="May" style="rounded=0;whiteSpace=wrap;html=1;fontFamily=Helvetica;fontSize=12;fontColor=#000000;align=center;" parent="1" vertex="1">
          <mxGeometry x="2573" y="80" width="236" height="30" as="geometry" />
        </mxCell>
        <mxCell id="J4HFlhDhFd4bc666YAR--106" value="April" style="rounded=0;whiteSpace=wrap;html=1;fontFamily=Helvetica;fontSize=12;fontColor=#000000;align=center;" parent="1" vertex="1">
          <mxGeometry x="2336" y="80" width="236" height="30" as="geometry" />
        </mxCell>
        <mxCell id="J4HFlhDhFd4bc666YAR--107" value="March" style="rounded=0;whiteSpace=wrap;html=1;fontFamily=Helvetica;fontSize=12;fontColor=#000000;align=center;" parent="1" vertex="1">
          <mxGeometry x="2100" y="80" width="236" height="30" as="geometry" />
        </mxCell>
        <mxCell id="J4HFlhDhFd4bc666YAR--108" value="June" style="rounded=0;whiteSpace=wrap;html=1;fontFamily=Helvetica;fontSize=12;fontColor=#000000;align=center;" parent="1" vertex="1">
          <mxGeometry x="2810" y="80" width="236" height="30" as="geometry" />
        </mxCell>
        <mxCell id="yKfj6UezUuoZRLsLaoU3-3" value="" style="endArrow=classic;startArrow=classic;html=1;rounded=0;" parent="1" edge="1">
          <mxGeometry width="50" height="50" relative="1" as="geometry">
            <mxPoint x="2010" y="550" as="sourcePoint" />
            <mxPoint x="2010" y="450" as="targetPoint" />
          </mxGeometry>
        </mxCell>
      </root>
    </mxGraphModel>
  </diagram>
</mxfile>
